<?xml version="1.0" standalone="no"?>
<!DOCTYPE svg PUBLIC "-//W3C//DTD SVG 1.1//EN" "http://www.w3.org/Graphics/SVG/1.1/DTD/svg11.dtd" >
<svg xmlns="http://www.w3.org/2000/svg" xmlns:xlink="http://www.w3.org/1999/xlink" version="1.1">
<metadata>
Created by FontForge 20150824 at Thu Jun 23 16:49:28 2016
 By Everything Fonts
Copyright (c) Avid Technology, Inc. 1987-2011
</metadata>
<defs>
<font id="OpusPlainChordsStd" horiz-adv-x="0" >
  <font-face 
    font-family="Opus PlainChords Std"
    font-weight="400"
    font-stretch="normal"
    units-per-em="1000"
    panose-1="2 0 4 0 0 0 0 0 0 0"
    ascent="800"
    descent="-200"
    x-height="448"
    cap-height="662"
    bbox="-81 -376 1736 1089"
    underline-thickness="36"
    underline-position="-34"
    stemh="22"
    stemv="64"
    unicode-range="U+0020-2122"
  />
<missing-glyph 
 />
    <glyph glyph-name=".notdef" 
 />
    <glyph glyph-name=".notdef" 
 />
    <glyph glyph-name="hyphen" unicode="-" horiz-adv-x="314" 
d="M40 262h252v-74h-252v74z" />
    <glyph glyph-name="period" unicode="." horiz-adv-x="962" 
d="M892 570c0 -24 -24 -46 -48 -46c-21 0 -44 20 -44 44s22 46 46 46s46 -20 46 -44zM882 410v-308c0 -76 12 -86 70 -86v-16h-216v16c58 0 70 10 70 86v216c-4 20 -13 30 -28 30c-8 0 -22 -3 -42 -8v20zM170 312v-210c0 -75 8 -86 54 -86v-16h-190v16c48 0 60 8 60 86v214
c0 20 -5 32 -16 36h-44v16l136 44v-72c39 48 85 72 138 72c51 0 81 -25 90 -74c44 51 94 76 150 76c65 0 102 -59 102 -122v-190c0 -78 12 -86 60 -86v-16h-190v16c42 0 54 12 54 86v194c0 49 -23 74 -68 74c-36 0 -70 -19 -102 -56c1 -8 2 -79 2 -212c0 -76 14 -86 60 -86
v-16h-188v16c42 0 54 12 54 86v194c0 48 -21 72 -64 72c-36 0 -69 -19 -98 -56z" />
    <glyph glyph-name="slash" unicode="/" horiz-adv-x="330" 
d="M320 664l-321 -875l-44 14l313 877z" />
    <glyph glyph-name="zero" unicode="0" horiz-adv-x="507" 
d="M464 340c0 -190 -87 -339 -219 -339c-140 0 -224 149 -224 339c0 193 90 339 222 339c135 0 221 -149 221 -339zM240 648c-84 0 -126 -90 -126 -269v-89c0 -174 43 -261 129 -261c88 0 131 102 131 305c0 209 -45 314 -134 314z" />
    <glyph glyph-name="one" unicode="1" horiz-adv-x="378" 
d="M320 3h-269v23c80 0 95 9 95 92v406c0 34 -8 50 -25 50c-13 0 -39 -7 -79 -22v17c41 22 103 54 185 98v-549c0 -81 13 -92 93 -92v-23z" />
    <glyph glyph-name="two" unicode="2" horiz-adv-x="484" 
d="M470 137l-59 -135h-378v14l187 205c75 82 112 158 112 229c0 79 -50 140 -128 140c-68 0 -117 -45 -149 -134l-17 5c23 117 93 205 205 205c98 0 171 -87 171 -185c0 -73 -33 -141 -96 -207l-190 -196h235c39 0 70 22 93 67z" />
    <glyph glyph-name="three" unicode="3" horiz-adv-x="476" 
d="M120 5c-58 0 -87 21 -87 65c0 18 15 28 45 28c11 0 85 -54 137 -54c83 0 129 66 129 149c0 96 -63 147 -170 147c-12 0 -25 0 -37 -2v14c89 23 170 77 170 163c0 60 -40 101 -103 101c-66 0 -116 -38 -154 -112l-14 5c49 123 103 171 201 171c83 0 143 -53 143 -132
c0 -56 -28 -102 -84 -137c74 -26 121 -95 121 -173c0 -143 -118 -233 -297 -233z" />
    <glyph glyph-name="four" unicode="4" horiz-adv-x="507" 
d="M463 162h-92v-163h-79v163h-280v67l297 431h62v-431h92v-67zM292 576l-235 -347h235v347z" />
    <glyph glyph-name="five" unicode="5" horiz-adv-x="454" 
d="M431 687l-44 -93h-202l-39 -86c175 -24 263 -108 263 -250c0 -149 -106 -252 -258 -252c-61 0 -117 23 -117 59c0 27 21 48 47 48c9 0 104 -67 138 -67c71 0 123 86 123 165c0 129 -91 200 -275 215l110 247h173c38 0 60 8 67 25z" />
    <glyph glyph-name="six" unicode="6" horiz-adv-x="476" 
d="M437 678l2 -14c-179 -44 -261 -122 -294 -275c44 30 87 45 132 45c112 0 179 -89 179 -201c0 -131 -85 -233 -201 -233c-139 0 -224 123 -224 275c0 117 37 214 114 291c73 73 114 88 292 112zM367 196c0 128 -44 191 -132 191c-41 0 -76 -16 -104 -45
c-7 -27 -11 -58 -11 -93c0 -131 49 -215 143 -215c69 0 104 54 104 162z" />
    <glyph glyph-name="seven" unicode="7" horiz-adv-x="454" 
d="M432 664l-215 -661h-59l188 583h-199c-55 0 -94 -30 -121 -87l-16 11l58 154h364z" />
    <glyph glyph-name="eight" unicode="8" horiz-adv-x="490" 
d="M171 343c-77 58 -114 118 -114 179c0 96 93 160 187 160c83 0 174 -50 174 -134c0 -69 -44 -125 -132 -168c95 -62 143 -131 143 -208c0 -103 -102 -165 -202 -165c-93 0 -179 67 -179 163c0 63 41 121 123 173zM253 399c65 32 98 80 98 143c0 67 -42 109 -110 109
c-63 0 -112 -40 -112 -101c0 -60 41 -110 124 -151zM353 144c0 73 -50 133 -151 180c-54 -30 -81 -80 -81 -149c0 -78 46 -140 120 -140c63 0 112 46 112 109z" />
    <glyph glyph-name="nine" unicode="9" horiz-adv-x="482" 
d="M442 409c0 -238 -164 -378 -398 -404l-3 17c133 23 272 150 303 283c-38 -35 -87 -53 -149 -53c-112 0 -176 80 -176 196c0 122 81 235 207 235c130 0 216 -119 216 -274zM237 297c47 0 84 16 112 50c2 18 3 39 3 62c0 168 -43 252 -131 252c-68 0 -115 -77 -115 -180
c0 -123 43 -184 131 -184z" />
    <glyph glyph-name="colon" unicode=":" horiz-adv-x="1620" 
d="M216 250c-113 0 -208 106 -208 218s95 216 208 216c115 0 208 -104 208 -216s-93 -218 -208 -218zM216 658c-82 0 -138 -82 -138 -190c0 -107 54 -192 138 -192c87 0 140 85 140 192s-55 190 -140 190zM972 258h-176v14c52 0 58 9 58 62v270l-166 -346h-10l-158 346v-286
c0 -37 16 -46 56 -46v-14h-140v14c51 0 56 11 56 62v284c0 29 -19 44 -56 44v14h122l146 -318l150 318h118v-14c-48 -3 -54 -14 -54 -62v-266c0 -51 6 -62 54 -62v-14zM1190 258h-176v14c48 0 56 9 56 62v266c0 51 -8 62 -56 62v14h176v-14c-51 0 -56 -11 -56 -62v-266
c0 -59 2 -46 56 -76zM1596 564h-14c-5 40 -27 82 -62 82h-74v-312c0 -51 5 -62 56 -62v-14h-176v14c51 0 56 11 56 62v312h-72c-35 0 -57 -42 -62 -82h-14v112h362v-112z" />
    <glyph glyph-name="semicolon" unicode=";" horiz-adv-x="1825" 
d="M34 218c0 128 93 240 224 240c129 0 216 -102 216 -228c0 -128 -92 -239 -224 -239c-129 0 -216 101 -216 227zM386 202c0 119 -53 224 -144 224c-78 0 -120 -70 -120 -178c0 -119 53 -224 144 -224c78 0 120 70 120 178zM1217 0h-210v18c43 0 60 14 60 78v232
c0 55 -25 82 -76 82c-40 0 -78 -21 -114 -62c3 -9 5 -32 6 -68v-100c-1 -49 -2 -75 -2 -78c0 -68 13 -84 66 -84v-18h-210v18c43 0 60 14 60 78v232c0 55 -23 82 -70 82c-40 0 -77 -21 -110 -64v-258c0 -54 17 -70 60 -70v-18h-210v18c53 0 66 16 66 84v250
c0 23 -6 36 -18 40h-48v18l150 48v-80c44 53 95 80 154 80c56 0 89 -27 100 -82c49 55 105 82 168 82c32 0 56 -8 72 -24c18 -18 40 -84 40 -110v-222c0 -68 13 -84 66 -84v-18zM1418 634c0 -27 -25 -52 -52 -52s-50 24 -50 48c0 27 25 52 52 52s50 -24 50 -48zM1408 456
v-342c0 -86 12 -96 78 -96v-18h-240v18c66 0 78 10 78 96v212c0 40 -11 60 -32 60c-9 0 -25 -3 -46 -8v22zM1736 72c-40 -54 -84 -81 -132 -81c-59 0 -78 29 -78 127v296h-56v12c51 39 97 90 140 154v-132h106v-34h-106v-296c0 -47 15 -70 44 -70c23 0 45 13 68 38z" />
    <glyph glyph-name="less" unicode="&#x3c;" horiz-adv-x="1016" 
d="M550 258h-178v14c52 0 58 9 58 62v270l-166 -346h-10l-156 346v-286c0 -37 17 -46 54 -46v-14h-140v14c51 0 58 11 58 62v284c0 29 -19 44 -58 44v14h122l146 -318l150 318h120v-14c-48 -3 -56 -14 -56 -62v-266c0 -51 5 -62 56 -62v-14zM1003 259h-160v14
c28 0 42 8 42 24c0 18 -16 61 -33 97h-166c-17 -36 -36 -80 -36 -97c0 -16 15 -24 43 -24v-14h-127v14c25 2 44 15 56 43l156 371h17l146 -351c23 -58 32 -62 62 -63v-14zM769 589l-70 -165h144z" />
    <glyph glyph-name="equal" unicode="=" horiz-adv-x="520" 
d="M534 326h-504v64h504v-64zM534 132h-504v64h504v-64z" />
    <glyph glyph-name="greater" unicode="&#x3e;" horiz-adv-x="782" 
d="M550 0h-178v14c52 0 58 9 58 62v270l-166 -346h-10l-156 346v-286c0 -37 17 -46 54 -46v-14h-140v14c51 0 58 11 58 62v284c0 29 -19 44 -58 44v14h122l146 -318l150 318h120v-14c-48 -3 -56 -14 -56 -62v-266c0 -53 4 -62 56 -62v-14zM770 0h-177v14c52 0 57 10 57 61
v265c0 51 -5 62 -57 62v14h177v-14c-52 0 -56 -11 -56 -62v-265c0 -51 4 -61 56 -61v-14z" />
    <glyph glyph-name="question" unicode="?" horiz-adv-x="406" 
d="M218 166v7c-1 66 14 119 34 159c37 69 56 132 56 188c0 72 -35 128 -104 128c-31 0 -98 -29 -98 -62c0 -14 34 -60 34 -80c0 -24 -18 -46 -42 -46c-32 0 -48 29 -48 64c0 91 78 152 170 152c93 0 176 -56 176 -154c0 -128 -153 -232 -162 -356h-16zM220 -13
c-32 0 -58 25 -58 57s26 58 58 58s58 -26 58 -58s-26 -57 -58 -57z" />
    <glyph glyph-name="at" unicode="@" horiz-adv-x="1336" 
d="M1066 2h-176v14c52 0 54 9 54 62v266c0 53 -2 62 -54 62v14h200c137 0 220 -93 220 -210c0 -140 -105 -208 -244 -208zM880 212c0 -135 -95 -210 -244 -210h-178v14c55 0 56 9 56 62v266c0 53 -1 62 -56 62v14h202c126 0 220 -85 220 -208zM10 16c25 3 43 17 54 42
l158 370h18l144 -350c21 -53 30 -60 60 -62v-14h-158v14c27 0 40 8 40 24c0 8 -10 41 -30 98h-166c-23 -56 -34 -89 -34 -98c0 -16 13 -24 40 -24v-14h-126v14zM1060 396c-49 0 -50 -5 -50 -58v-252c0 -54 4 -58 58 -58c115 0 176 65 176 180c0 117 -67 188 -184 188z
M630 396c-49 0 -50 -5 -50 -58v-252c0 -54 4 -58 58 -58c115 0 176 65 176 180c0 117 -67 188 -184 188zM214 330l-72 -164h142z" />
    <glyph glyph-name="A" unicode="A" horiz-adv-x="722" 
d="M706 0h-252v22c44 0 66 13 66 38c0 28 -26 96 -52 154h-262c-28 -59 -56 -127 -56 -154c0 -25 22 -38 66 -38v-22h-200v22c40 3 69 25 88 68l248 586h26l230 -554c38 -91 50 -98 98 -100v-22zM338 522l-112 -262h228z" />
    <glyph glyph-name="B" unicode="B" horiz-adv-x="610" 
d="M434 344c96 -20 155 -89 156 -160c0 -105 -107 -184 -210 -184h-366v22c83 0 90 17 90 98v420c0 81 -8 100 -90 100v22h334c115 0 214 -72 214 -172c0 -72 -53 -125 -128 -146zM336 364c75 0 128 47 128 122s-55 130 -130 130h-68c-51 0 -60 -19 -60 -72v-180h130z
M206 94c0 -21 3 -34 8 -39c9 -9 65 -15 108 -15c128 0 158 79 158 146c0 78 -66 132 -144 132h-130v-224z" />
    <glyph glyph-name="D" unicode="D" horiz-adv-x="704" 
d="M684 332c0 -211 -147 -332 -390 -332h-280v22c83 0 90 17 90 98v422c0 81 -7 98 -90 98v22h318c47 0 95 -9 145 -27c138 -50 207 -154 207 -303zM576 326c0 182 -105 300 -290 300c-81 0 -80 -12 -80 -92v-400c0 -78 2 -92 82 -92c187 0 288 100 288 284z" />
    <glyph glyph-name="H" unicode="H" horiz-adv-x="724" 
d="M706 0h-282v22c83 0 90 17 90 98v198h-302v-198c0 -81 7 -98 90 -98v-22h-282v22c83 0 90 17 90 98v422c0 81 -7 98 -90 98v22h282v-22c-83 0 -90 -17 -90 -98v-178h302v178c0 81 -7 98 -90 98v22h282v-22c-83 0 -90 -17 -90 -98v-422c0 -81 7 -98 90 -98v-22z" />
    <glyph glyph-name="I" unicode="I" horiz-adv-x="326" 
d="M308 0h-282v22c83 0 90 17 90 98v422c0 81 -7 98 -90 98v22h282v-22c-83 0 -90 -17 -90 -98v-422c0 -81 7 -98 90 -98v-22z" />
    <glyph glyph-name="J" unicode="J" horiz-adv-x="392" 
d="M378 640c-83 0 -90 -17 -90 -98v-308c0 -150 -59 -247 -166 -247c-63 0 -114 29 -114 71c0 29 23 56 50 56c16 0 30 -8 42 -24c0 0 1 -60 32 -60c36 0 54 32 54 96v416c0 81 -7 98 -90 98v22h282v-22z" />
    <glyph glyph-name="K" unicode="K" horiz-adv-x="704" 
d="M704 0h-292v22c45 0 68 9 68 28c0 24 -75 113 -224 266l-50 -36v-160c0 -81 7 -98 90 -98v-22h-282v22c83 0 90 17 90 98v422c0 81 -7 98 -90 98v22h282v-22c-83 0 -90 -17 -90 -98v-218l182 166c60 55 90 93 90 116c0 19 -22 30 -66 34v22h256v-22
c-31 -1 -57 -7 -78 -18c-44 -29 -15 -8 -254 -242c81 -89 167 -190 256 -302c30 -37 64 -56 103 -56h9v-22z" />
    <glyph glyph-name="L" unicode="L" horiz-adv-x="584" 
d="M600 170l-44 -170h-542v22c61 0 90 16 90 72v448c0 81 -7 98 -90 98v22h282v-22c-83 0 -90 -17 -90 -98v-460c0 -27 7 -36 36 -36h182c72 0 125 52 146 124h30z" />
    <glyph glyph-name="M" unicode="M" horiz-adv-x="890" 
d="M872 0h-280v22c83 0 90 17 90 98v430l-262 -550h-16l-250 550v-456c0 -52 19 -72 88 -72v-22h-222v22c82 0 90 19 90 98v452c0 45 -30 68 -90 68v22h194l230 -502l238 502h190v-22c-79 -2 -88 -21 -88 -98v-422c0 -81 5 -98 88 -98v-22z" />
    <glyph glyph-name="N" unicode="N" horiz-adv-x="714" 
d="M710 640c-82 0 -88 -19 -88 -98v-555h-26l-450 549v-440c0 -61 24 -74 88 -74v-22h-222v22c82 0 90 19 90 98v452c0 45 -30 68 -90 68v22h168l396 -494v398c0 61 -24 74 -88 74v22h222v-22z" />
    <glyph glyph-name="O" unicode="O" horiz-adv-x="710" 
d="M364 -13c-182 0 -330 167 -330 345s148 344 330 344s330 -166 330 -344s-148 -345 -330 -345zM364 634c-134 0 -220 -129 -220 -302c0 -174 87 -304 220 -304s220 130 220 304c0 173 -86 302 -220 302z" />
    <glyph glyph-name="P" unicode="P" horiz-adv-x="534" 
d="M542 480c0 -119 -114 -198 -256 -198c-27 0 -54 2 -82 6v-168c0 -81 7 -98 90 -98v-22h-282v22c83 0 90 17 90 98v422c0 81 -7 98 -90 98v22h320c103 0 210 -77 210 -182zM204 558v-230c36 -3 57 -4 62 -4c96 0 174 49 174 146c0 96 -64 150 -160 150
c-53 0 -76 -11 -76 -62z" />
    <glyph glyph-name="Q" unicode="Q" horiz-adv-x="710" 
d="M702 -149v-24c-36 -3 -63 -4 -82 -4c-163 0 -263 50 -360 181c-130 46 -226 186 -226 326c0 178 148 346 330 346s330 -166 330 -344c0 -154 -121 -319 -276 -339c70 -107 135 -142 284 -142zM584 332c0 173 -86 302 -220 302s-220 -129 -220 -302
c0 -174 87 -304 220 -304s220 130 220 304z" />
    <glyph glyph-name="R" unicode="R" horiz-adv-x="656" 
d="M334 662c25 0 55 -7 89 -21c85 -35 119 -82 119 -153c0 -96 -73 -160 -172 -176l180 -234c33 -42 50 -53 102 -56v-22h-160c-48 67 -119 166 -214 298c-23 0 -47 1 -74 4v-182c0 -81 5 -98 88 -98v-22h-280v22c83 0 90 17 90 98v422c0 81 -7 98 -90 98v22h322zM438 484
c0 91 -53 136 -158 136c-62 0 -76 -15 -76 -60v-218c21 -1 36 -2 44 -2c122 0 190 52 190 144z" />
    <glyph glyph-name="S" unicode="S" horiz-adv-x="510" 
d="M476 450h-26c-32 120 -93 180 -182 180c-61 0 -108 -37 -108 -98c0 -97 139 -137 246 -204c58 -37 86 -96 86 -156c0 -113 -100 -185 -212 -185c-28 0 -126 31 -154 31c-22 0 -34 -8 -34 -25v-6h-20l-30 215h26c45 -117 113 -176 204 -176c69 0 124 43 124 110
c0 111 -133 147 -238 212c-57 35 -84 92 -84 150c0 103 89 178 190 178c28 0 115 -34 142 -34c17 0 28 11 32 32h20z" />
    <glyph glyph-name="T" unicode="T" horiz-adv-x="612" 
d="M594 486h-24c-9 67 -44 130 -96 130h-118v-496c0 -81 5 -98 88 -98v-22h-278v22c83 0 88 17 88 98v496h-116c-52 0 -87 -63 -96 -130h-24v176h576v-176z" />
    <glyph glyph-name="U" unicode="U" horiz-adv-x="722" 
d="M706 640c-81 0 -88 -18 -88 -98v-294c0 -168 -96 -261 -264 -261c-164 0 -250 87 -250 249v306c0 81 -5 98 -88 98v22h280v-22c-83 0 -88 -17 -88 -98v-342c0 -107 63 -170 170 -170c129 0 194 74 194 222v290c0 91 -16 98 -88 98v22h222v-22z" />
    <glyph glyph-name="V" unicode="V" horiz-adv-x="722" 
d="M702 640c-29 -1 -51 -11 -64 -30c-3 -4 -13 -27 -30 -68l-232 -555h-10l-248 555c-52 87 -33 90 -98 98v22h258v-22h-11c-44 0 -65 -13 -65 -40c0 -12 6 -31 18 -58l178 -386l162 386c8 19 12 35 12 48c0 33 -21 51 -64 51c-4 0 -9 -1 -14 -1v22h208v-22z" />
    <glyph glyph-name="W" unicode="W" horiz-adv-x="956" 
d="M936 640c-33 0 -57 -9 -72 -26c-7 -8 -17 -32 -32 -72l-210 -555h-8l-146 425l-160 -425h-8l-190 555c-30 88 -40 92 -100 98v22h258v-22h-6c-8 0 -15 1 -21 1c-31 0 -45 -12 -45 -37c0 -17 5 -41 16 -70l126 -352l108 298l-20 62c-28 86 -39 93 -102 98v22h258v-22h-19
c-33 0 -51 -7 -51 -36c0 -16 5 -39 16 -70l124 -352l132 360c8 21 12 39 12 52c0 31 -26 46 -78 46v22h218v-22z" />
    <glyph glyph-name="X" unicode="X" horiz-adv-x="716" 
d="M408 366l142 -212c78 -115 101 -134 160 -136v-18h-284v18c44 1 66 14 66 38c0 12 -11 34 -32 66l-112 170l-138 -178c-21 -27 -32 -46 -32 -58c0 -24 21 -37 64 -38v-18h-234v18c55 5 109 42 162 110l156 198l-130 190c-68 99 -104 126 -176 128v18h306v-18
c-45 -1 -68 -14 -68 -38c0 -12 8 -29 24 -52l102 -152l118 148c20 25 30 44 30 56c0 25 -24 38 -72 38v18h236v-18c-58 -2 -88 -23 -156 -110z" />
    <glyph glyph-name="Y" unicode="Y" horiz-adv-x="716" 
d="M704 640c-52 -1 -98 -34 -138 -98l-156 -246v-176c0 -81 5 -98 88 -98v-22h-280v22c83 0 90 17 90 98v168l-160 254c-51 81 -73 99 -128 98v22h284v-22h-12c-40 0 -60 -10 -60 -32c0 -15 9 -37 28 -66l128 -202l132 202c20 31 30 53 30 68c0 21 -16 31 -48 31
c-5 0 -12 0 -18 -1v22h220v-22z" />
    <glyph glyph-name="Z" unicode="Z" horiz-adv-x="620" 
d="M598 176l-18 -176h-572v14l460 602h-302c-4 0 -13 -3 -26 -8c-48 -20 -73 -61 -76 -122h-24l18 176h540v-14l-460 -602h334c4 0 13 3 26 8c48 20 73 61 76 122h24z" />
    <glyph glyph-name="bracketleft" unicode="[" horiz-adv-x="331" 
d="M272 768c-67 -97 -114 -289 -114 -458c0 -134 54 -373 108 -451l-26 -18c-78 105 -149 328 -149 465c0 163 48 323 145 480z" />
    <glyph glyph-name="backslash" unicode="\" horiz-adv-x="380" 
d="M360 0h-58l-383 680h58z" />
    <glyph glyph-name="bracketright" unicode="]" horiz-adv-x="230" 
d="M39 768l35 18c97 -157 146 -317 146 -480c0 -137 -73 -361 -150 -465l-25 18c52 79 107 318 107 451c0 168 -46 362 -113 458z" />
    <glyph glyph-name="asciicircum" unicode="^" horiz-adv-x="442" 
d="M440 310h-440l220 422zM100 370h240l-120 242z" />
    <glyph glyph-name="underscore" unicode="_" horiz-adv-x="550" 
d="M518 320h-597v80h597v-80z" />
    <glyph glyph-name="grave" unicode="`" horiz-adv-x="240" 
d="M58 678h108l52 -168h-16z" />
    <glyph glyph-name="a" unicode="a" horiz-adv-x="436" 
d="M438 74v-30c-32 -35 -63 -53 -94 -53c-39 0 -59 24 -60 73c-63 -50 -115 -75 -156 -75c-56 0 -94 54 -94 107c0 89 59 135 246 194v60c0 56 -25 84 -74 84c-35 0 -70 -18 -70 -50c0 -8 4 -30 4 -38c0 -24 -22 -44 -46 -44c-27 0 -40 15 -40 44c0 63 89 112 166 112
c91 0 144 -51 144 -142v-226c0 -27 7 -40 22 -40c12 0 29 8 52 24zM280 90v172c-59 -19 -94 -32 -106 -40c-35 -20 -52 -51 -52 -92c0 -43 23 -80 66 -80c27 0 57 13 92 40z" />
    <glyph glyph-name="b" unicode="b" horiz-adv-x="504" 
d="M89 19v928h57l-10 -468c65 74 80 81 140 81c98 0 164 -69 164 -169c0 -145 -147 -208 -260 -299zM237 503c-45 0 -66 -51 -91 -89c-6 -95 -10 -156 -10 -182c0 -47 4 -84 13 -112c123 99 184 189 184 268c0 63 -37 115 -96 115z" />
    <glyph glyph-name="c" unicode="c" horiz-adv-x="438" 
d="M420 156c-32 -93 -105 -165 -198 -165c-111 0 -188 102 -188 227c0 131 97 242 228 242c75 0 150 -45 150 -106c0 -31 -15 -46 -46 -46c-24 0 -39 12 -44 36c-17 77 -38 84 -82 84c-73 0 -130 -80 -130 -176c0 -100 61 -186 150 -186c64 0 117 39 144 98z" />
    <glyph glyph-name="d" unicode="d" horiz-adv-x="494" 
d="M414 682v-570c0 -33 13 -50 38 -50h18c11 1 18 2 22 2v-18c-63 -12 -117 -32 -162 -59v75c-29 -47 -71 -71 -126 -71c-105 0 -178 99 -178 217c0 117 82 250 204 250c40 0 73 -13 100 -38v150c0 27 -7 43 -22 48h-56v18zM330 106v236c0 3 -2 9 -6 20
c-17 44 -47 66 -88 66c-80 0 -124 -84 -124 -190c0 -116 48 -196 128 -196c43 0 73 21 90 64z" />
    <glyph glyph-name="e" unicode="e" horiz-adv-x="430" 
d="M422 158c-41 -111 -112 -167 -212 -167c-114 0 -188 104 -188 227c0 126 80 240 208 240c109 0 171 -75 174 -184h-312c0 -120 63 -214 160 -214c63 0 114 35 154 106zM308 308v14v6c0 56 -43 94 -102 94s-97 -38 -114 -114h216z" />
    <glyph glyph-name="f" unicode="f" horiz-adv-x="390" 
d="M382 610c0 -24 -18 -42 -42 -42c-44 0 -50 82 -96 82c-41 0 -62 -33 -62 -100v-102h124v-34h-124v-300c0 -86 12 -96 78 -96v-18h-240v18c66 0 78 10 78 96v300h-78v34h78v25c0 117 79 209 182 209c45 0 102 -25 102 -72z" />
    <glyph glyph-name="g" unicode="g" horiz-adv-x="496" 
d="M198 -217c-90 0 -170 42 -170 102c0 33 32 73 96 119c-35 9 -52 27 -52 52c0 32 27 67 82 106c-51 19 -82 76 -82 132c0 91 74 164 166 164c36 0 146 -38 182 -38c17 0 34 2 50 6v-44h-78c11 -27 16 -53 16 -80c0 -88 -71 -154 -158 -154c-19 0 -42 2 -70 6
c-31 -21 -46 -40 -46 -56c0 -19 28 -28 84 -28c83 -1 135 -5 158 -10c56 -15 84 -46 84 -95c0 -111 -130 -182 -262 -182zM330 270c0 76 -46 158 -104 158c-48 0 -72 -43 -72 -96c0 -76 46 -158 104 -158c48 0 72 43 72 96zM428 -61c0 11 -3 21 -10 30
c-17 22 -187 17 -274 30c-31 -27 -46 -55 -46 -84c0 -48 43 -72 130 -72c116 0 200 37 200 96z" />
    <glyph glyph-name="h" unicode="h" horiz-adv-x="482" 
d="M490 0h-210v18c43 0 60 14 60 78v230c0 45 -27 78 -72 78c-39 0 -75 -19 -108 -58v-256c0 -57 17 -72 60 -72v-18h-210v18c53 0 66 20 66 76v482c0 39 -1 42 -66 42v18l150 46v-300c41 51 91 76 148 76c77 0 116 -45 116 -136v-220c0 -68 13 -84 66 -84v-18z" />
    <glyph glyph-name="i" unicode="i" horiz-adv-x="266" 
d="M192 634c0 -27 -25 -52 -52 -52s-50 24 -50 48c0 27 25 52 52 52s50 -24 50 -48zM182 456v-342c0 -86 12 -96 78 -96v-18h-240v18c66 0 78 10 78 96v212c0 40 -11 60 -32 60c-9 0 -25 -3 -46 -8v22z" />
    <glyph glyph-name="j" unicode="j" horiz-adv-x="254" 
d="M212 634c0 -27 -25 -52 -52 -52s-50 24 -50 48c0 27 25 52 52 52s50 -24 50 -48zM42 378v22l160 58v-424c0 -167 -53 -251 -160 -251c-48 0 -95 21 -95 66c0 27 11 40 34 40c26 0 74 -62 99 -62s38 37 38 110v389c0 40 -10 60 -30 60c-9 0 -25 -3 -46 -8z" />
    <glyph glyph-name="k" unicode="k" horiz-adv-x="490" 
d="M500 0h-216v18c24 0 36 7 36 22c0 5 -73 107 -156 210v-146c0 -64 5 -86 72 -86v-18h-234v18c66 0 78 10 78 96v456c0 45 -1 48 -78 48v18l162 46v-420c97 83 162 136 162 154c0 9 -16 14 -48 14v18h196v-18h-18c-77 0 -146 -76 -216 -146l160 -214
c18 -25 70 -50 100 -52v-18z" />
    <glyph glyph-name="l" unicode="l" horiz-adv-x="264" 
d="M260 0h-240v18c68 0 78 19 78 88v464c0 45 -1 48 -78 48v18l162 46v-568c0 -86 12 -96 78 -96v-18z" />
    <glyph glyph-name="m" unicode="m" horiz-adv-x="766" 
d="M760 0h-210v18c43 0 60 14 60 78v232c0 55 -25 82 -76 82c-40 0 -78 -21 -114 -62c3 -9 5 -32 6 -68v-100c-1 -49 -2 -75 -2 -78c0 -68 13 -84 66 -84v-18h-210v18c43 0 60 14 60 78v232c0 55 -23 82 -70 82c-40 0 -77 -21 -110 -64v-258c0 -54 17 -70 60 -70v-18h-210
v18c53 0 66 16 66 84v250c0 23 -6 36 -18 40h-48v18l150 48v-80c44 53 95 80 154 80c56 0 89 -27 100 -82c49 55 105 82 168 82c32 0 56 -8 72 -24c18 -18 40 -84 40 -110v-222c0 -68 13 -84 66 -84v-18z" />
    <glyph glyph-name="n" unicode="n" horiz-adv-x="496" 
d="M490 0h-210v18c43 0 60 14 60 78v230c0 45 -27 78 -72 78c-39 0 -75 -19 -108 -58v-256c0 -57 17 -72 60 -72v-18h-210v18c48 0 66 15 66 76v256c0 39 -1 42 -66 42v18l150 48v-76c41 51 91 76 148 76c77 0 116 -45 116 -136v-220c0 -68 13 -84 66 -84v-18z" />
    <glyph glyph-name="o" unicode="o" horiz-adv-x="502" 
d="M34 218c0 128 93 240 224 240c129 0 216 -102 216 -228c0 -128 -92 -239 -224 -239c-129 0 -216 101 -216 227zM386 202c0 119 -53 224 -144 224c-78 0 -120 -70 -120 -178c0 -119 53 -224 144 -224c78 0 120 70 120 178z" />
    <glyph glyph-name="p" unicode="p" horiz-adv-x="504" 
d="M10 414l162 44v-76c40 51 87 76 142 76c100 0 160 -92 160 -214c0 -158 -112 -253 -204 -253c-36 0 -69 14 -98 41v-135c0 -86 12 -96 78 -96v-18h-240v18c66 0 78 10 78 96v455c0 24 -8 39 -24 44h-54v18zM266 400c-36 0 -67 -17 -94 -52v-272c29 -35 61 -52 96 -52
c75 0 120 81 120 196c0 108 -41 180 -122 180z" />
    <glyph glyph-name="q" unicode="q" horiz-adv-x="486" 
d="M330 -103v169c-41 -50 -89 -75 -144 -75c-102 0 -160 95 -160 205c0 129 84 262 214 262c40 0 78 -11 114 -32l60 34v-563c0 -86 12 -96 78 -96v-18h-240v18c66 0 78 10 78 96zM330 100v282c-20 35 -49 52 -88 52c-80 0 -132 -90 -132 -198c0 -106 47 -182 124 -182
c37 0 69 15 96 46z" />
    <glyph glyph-name="r" unicode="r" horiz-adv-x="354" 
d="M338 408c0 -24 -20 -50 -44 -50c-20 0 -51 34 -68 34c-23 0 -43 -24 -60 -72v-216c0 -66 8 -86 76 -86v-18h-238v18c66 0 78 10 78 96v224c0 45 -8 52 -34 52c-11 0 -26 -2 -46 -6v18l164 56v-84c27 45 75 84 120 84c29 0 52 -21 52 -50z" />
    <glyph glyph-name="s" unicode="s" horiz-adv-x="372" 
d="M348 124c0 -83 -69 -133 -154 -133c-20 0 -84 23 -104 23c-12 0 -19 -5 -20 -14h-18v158h18c0 -72 55 -140 128 -140c45 0 82 25 82 68c0 97 -228 125 -228 248c0 74 71 124 142 124c21 0 81 -24 94 -24c10 0 14 4 14 11v3h18v-138h-18c0 13 -4 30 -13 50
c-24 54 -53 72 -99 72c-43 0 -74 -23 -74 -66c0 -28 19 -53 58 -76c87 -51 174 -84 174 -166z" />
    <glyph glyph-name="t" unicode="t" horiz-adv-x="290" 
d="M280 72c-40 -54 -84 -81 -132 -81c-59 0 -78 29 -78 127v296h-56v12c51 39 97 90 140 154v-132h106v-34h-106v-296c0 -47 15 -70 44 -70c23 0 45 13 68 38z" />
    <glyph glyph-name="u" unicode="u" horiz-adv-x="490" 
d="M480 42l-144 -51v79c-39 -53 -85 -79 -138 -79c-69 0 -122 46 -122 115v268c0 49 2 52 -66 52v22h150v-294c0 -75 19 -102 74 -102c47 0 81 19 102 56v272c0 44 1 46 -66 46v22h150v-338c0 -38 11 -51 42 -51c5 0 11 0 18 1v-18z" />
    <glyph glyph-name="v" unicode="v" horiz-adv-x="468" 
d="M468 430c-36 0 -45 -10 -80 -100l-134 -339h-18l-140 339c-36 89 -48 100 -86 100v18h194v-18c-31 0 -46 -11 -46 -34c0 -11 7 -33 22 -66l88 -204l82 204c13 33 20 56 20 68c0 21 -15 32 -44 32v18h142v-18z" />
    <glyph glyph-name="w" unicode="w" horiz-adv-x="698" 
d="M694 430c-32 0 -44 -18 -76 -100l-132 -339h-16l-98 275l-126 -275h-16l-122 339c-28 78 -44 98 -86 100v18h194v-18c-31 0 -46 -11 -46 -34c0 -17 31 -108 94 -272l88 194c-29 88 -47 110 -90 112v18h194v-18c-31 0 -46 -11 -46 -34c0 -21 30 -112 90 -272
c18 47 39 94 58 142c29 72 42 118 42 132c0 21 -15 32 -44 32v18h138v-18z" />
    <glyph glyph-name="x" unicode="x" horiz-adv-x="472" 
d="M446 90h-108c0 58 -27 113 -80 165c-53 -52 -80 -107 -80 -165h-108v108c58 0 113 27 165 80c-52 53 -107 80 -165 80v108h108c0 -58 27 -113 80 -165c53 52 80 107 80 165h108v-108c-61 -3 -115 -30 -165 -80c54 -53 106 -80 157 -80h8v-108z" />
    <glyph glyph-name="y" unicode="y" horiz-adv-x="464" 
d="M468 430h-2c-34 0 -48 -19 -78 -100l-114 -310c-31 -82 -50 -131 -58 -147c-33 -60 -72 -90 -116 -90c-35 0 -74 23 -74 58c0 24 18 50 42 50c15 0 60 -18 74 -18c37 0 67 51 90 153l-134 304c-37 84 -53 100 -88 100v18h194v-18c-28 0 -42 -10 -42 -30
c0 -18 50 -144 110 -276l78 206c13 36 20 58 20 66c0 23 -15 34 -44 34v18h142v-18z" />
    <glyph glyph-name="z" unicode="z" horiz-adv-x="444" 
d="M418 140l-14 -140h-378v14l278 400h-154c-48 0 -72 -28 -72 -84h-18v118h348v-16l-276 -398h178c48 0 78 35 90 106h18z" />
    <glyph glyph-name="braceleft" unicode="{" horiz-adv-x="408" 
d="M410 -197v-18c-96 14 -182 88 -182 188c0 29 22 125 22 153c0 56 -53 96 -112 104v20c59 8 112 46 112 102c0 28 -22 126 -22 154c0 100 86 174 182 188v-16c-73 -19 -110 -57 -110 -114c0 -28 22 -128 22 -156c0 -75 -59 -136 -144 -168c83 -31 144 -95 144 -170
c0 -28 -22 -127 -22 -155c0 -57 37 -95 110 -112z" />
    <glyph glyph-name="bar" unicode="|" horiz-adv-x="186" 
d="M68 0v682h64v-682h-64z" />
    <glyph glyph-name="braceright" unicode="}" horiz-adv-x="360" 
d="M86 678v16c100 -14 184 -89 184 -188c0 -28 -22 -126 -22 -154c0 -52 50 -94 110 -102v-20c-63 -9 -110 -53 -110 -104c0 -28 22 -124 22 -153c0 -96 -84 -174 -184 -188v18c73 17 110 55 110 112c0 28 -22 127 -22 155c0 73 58 136 144 168c-82 32 -144 97 -144 170
c0 28 22 128 22 156c0 57 -37 95 -110 114z" />
    <glyph glyph-name="asciitilde" unicode="~" horiz-adv-x="552" 
d="M508 330h22c0 -83 -52 -136 -118 -136c-48 0 -247 90 -290 90c-48 0 -78 -29 -90 -88h-22c2 76 47 136 114 136c42 0 261 -94 294 -94c55 0 85 31 90 92z" />
    <glyph glyph-name="section" unicode="&#xa7;" horiz-adv-x="486" 
d="M415 -232h-39v294l-249 -70v868h39v-322l249 70v-840zM166 404v-268l210 71v263z" />
    <glyph glyph-name="ordmasculine" unicode="&#xba;" horiz-adv-x="404" 
d="M9 504c0 105 85 190 190 190s190 -85 190 -190s-85 -190 -190 -190s-190 85 -190 190zM65 504c0 -74 60 -134 134 -134s134 60 134 134s-60 134 -134 134s-134 -60 -134 -134z" />
    <glyph glyph-name="Oslash" unicode="&#xd8;" horiz-adv-x="450" 
d="M413 687l-69 -69c25 -32 40 -72 40 -116c0 -105 -85 -190 -190 -190c-44 0 -84 15 -116 40l-77 -77l-40 40l78 77c-22 31 -35 69 -35 110c0 105 85 190 190 190c41 0 79 -13 110 -35l69 70zM60 502c0 -25 7 -49 19 -69l184 184c-20 12 -44 19 -69 19
c-74 0 -134 -60 -134 -134zM328 502c0 28 -9 55 -24 76l-186 -186c21 -15 48 -24 76 -24c74 0 134 60 134 134z" />
    <glyph glyph-name="numbersign" unicode="#" horiz-adv-x="578" 
d="M372 431v275l-150 -51v-273zM372 1089h39v-223l91 28v-143l-91 -28v-273l91 28v-143l-91 -28v-247h-39v236l-150 -49v-237h-39v224l-89 -29v143l89 29v273l-89 -29v143l89 29v247h39v-237l150 52v234z" />
    <glyph glyph-name="exclam" unicode="!" horiz-adv-x="264" 
d="M178 178h-20l-34 338c-4 40 -6 70 -6 90c0 47 17 70 50 70s50 -23 50 -70c0 -20 -2 -50 -6 -90zM110 44c0 32 26 58 58 58s58 -26 58 -58s-26 -57 -58 -57s-58 25 -58 57z" />
    <glyph glyph-name="quotedbl" unicode="&#x22;" horiz-adv-x="376" 
d="M306 446h-22l-26 156c-4 24 -6 38 -6 42c0 28 15 42 44 42c28 0 42 -14 42 -42c0 -4 -2 -18 -6 -42zM124 446h-22l-26 156c-4 24 -6 38 -6 42c0 28 15 42 44 42c28 0 42 -14 42 -42c0 -4 -2 -18 -6 -42z" />
    <glyph glyph-name="ampersand" unicode="&#x26;" horiz-adv-x="546" 
d="M239 496h64v-220h220v-64h-220v-219h-64v219h-220v64h220v220z" />
    <glyph glyph-name="dollar" unicode="$" horiz-adv-x="474" 
d="M264 668c68 0 125 -20 170 -60v-114h-18c-17 97 -68 146 -152 146v-248c69 -36 113 -62 132 -78c40 -35 60 -79 60 -134c0 -110 -85 -180 -192 -180v-87h-32v87h-16c-61 0 -118 16 -172 50v130h18c11 -99 65 -148 163 -148h7v278c-146 77 -176 114 -176 194
c0 62 46 127 106 148c11 4 34 9 70 16v60h32v-60zM264 32c79 8 118 45 118 112c0 92 -89 133 -118 150v-262zM232 410v226c-67 -20 -100 -57 -100 -110c0 -31 11 -55 32 -74c7 -5 29 -19 68 -42z" />
    <glyph glyph-name="percent" unicode="%" horiz-adv-x="392" 
d="M319 850l1 -9c-118 -29 -172 -81 -194 -181c29 20 58 30 88 30c73 0 117 -59 117 -134c0 -86 -56 -153 -133 -153c-91 0 -148 81 -148 181c0 78 24 142 76 192c48 49 76 59 193 74zM272 532c0 84 -28 126 -87 126c-27 0 -49 -10 -69 -30c-4 -18 -7 -38 -7 -61
c0 -86 33 -141 95 -141c46 0 68 34 68 106zM338 161c0 -157 -108 -250 -262 -267l-2 11c88 16 179 100 200 187c-24 -22 -57 -34 -99 -34c-73 0 -116 52 -116 128c0 82 54 156 137 156c86 0 142 -79 142 -181zM204 86c30 0 55 11 73 34c1 12 3 25 3 41
c0 110 -29 167 -87 167c-45 0 -77 -52 -77 -119c0 -82 29 -123 88 -123z" />
    <glyph glyph-name="parenright" unicode=")" horiz-adv-x="330" 
d="M284 326c0 -180 -77 -320 -229 -417l-17 20c117 87 162 200 162 400s-45 314 -162 401l17 16c152 -96 229 -236 229 -420z" />
    <glyph glyph-name="quotesingle" unicode="'" horiz-adv-x="1456" 
d="M438 74v-30c-32 -35 -63 -53 -94 -53c-39 0 -59 24 -60 73c-63 -50 -115 -75 -156 -75c-56 0 -94 54 -94 107c0 89 59 135 246 194v60c0 56 -25 84 -74 84c-35 0 -70 -18 -70 -50c0 -8 4 -30 4 -38c0 -24 -22 -44 -46 -44c-27 0 -40 15 -40 44c0 63 89 112 166 112
c91 0 144 -51 144 -142v-226c0 -27 7 -40 22 -40c12 0 29 8 52 24zM280 90v172c-59 -19 -94 -32 -106 -40c-35 -20 -52 -51 -52 -92c0 -43 23 -80 66 -80c27 0 57 13 92 40zM831 693v-570c0 -33 13 -50 38 -50h18c11 1 18 2 22 2v-18c-63 -12 -117 -32 -162 -59v75
c-29 -47 -71 -71 -126 -71c-105 0 -178 99 -178 217c0 117 82 250 204 250c40 0 73 -13 100 -38v150c0 27 -7 43 -22 48h-56v18zM747 117v236c0 3 -2 9 -6 20c-17 44 -47 66 -88 66c-80 0 -124 -84 -124 -190c0 -116 48 -196 128 -196c43 0 73 21 90 64zM1287 693v-570
c0 -33 13 -50 38 -50h18c11 1 18 2 22 2v-18c-63 -12 -117 -32 -162 -59v75c-29 -47 -71 -71 -126 -71c-105 0 -178 99 -178 217c0 117 82 250 204 250c40 0 73 -13 100 -38v150c0 27 -7 43 -22 48h-56v18zM1203 117v236c0 3 -2 9 -6 20c-17 44 -47 66 -88 66
c-80 0 -124 -84 -124 -190c0 -116 48 -196 128 -196c43 0 73 21 90 64z" />
    <glyph glyph-name="parenleft" unicode="(" horiz-adv-x="350" 
d="M320 -56l-17 -20c-153 97 -230 237 -230 417c0 184 77 324 230 420l17 -16c-118 -87 -163 -194 -163 -401s45 -313 163 -400z" />
    <glyph glyph-name="aacute" unicode="&#xe1;" horiz-adv-x="253" 
d="M30 350v535h33l-6 -270c37 43 46 47 81 47c56 0 94 -40 94 -98c0 -83 -84 -120 -150 -172zM115 629c-67 0 -58 -152 -58 -156c0 -27 2 -49 7 -65c72 57 107 109 107 155c0 36 -22 66 -56 66zM30 -300v535h33l-6 -270c37 43 46 47 81 47c56 0 94 -40 94 -98
c0 -83 -84 -120 -150 -172zM115 -21c-67 0 -58 -152 -58 -156c0 -27 2 -49 7 -65c72 57 107 109 107 155c0 36 -22 66 -56 66z" />
    <glyph glyph-name="Aacute" unicode="&#xc1;" horiz-adv-x="371" 
d="M322 659c0 -170 -117 -270 -284 -288l-2 12c95 16 194 107 216 202c-27 -25 -62 -38 -106 -38c-80 0 -126 57 -126 140c0 87 58 168 148 168c93 0 154 -85 154 -196zM176 579c33 0 60 12 80 36c1 13 2 28 2 44c0 120 -31 180 -94 180c-48 0 -82 -55 -82 -128
c0 -88 31 -132 94 -132zM306 207l-32 -66h-144l-28 -62c125 -17 188 -77 188 -178c0 -107 -76 -180 -184 -180c-44 0 -84 16 -84 42c0 19 15 34 34 34c6 0 74 -48 98 -48c51 0 88 62 88 118c0 92 -65 143 -196 154l78 176h124c27 0 43 6 48 18z" />
    <glyph glyph-name="aring" unicode="&#xe5;" horiz-adv-x="300" 
d="M186 539v159l-87 -29v-158zM186 915h22v-129l53 17v-83l-53 -16v-158l53 17v-83l-53 -16v-143h-22v137l-87 -29v-136h-23v129l-51 -17v83l51 16v158l-51 -17v83l51 16v143h23v-137l87 30v135zM186 -111v159l-87 -29v-158zM186 265h22v-129l53 17v-83l-53 -16v-158l53 17
v-83l-53 -16v-143h-22v137l-87 -29v-136h-23v129l-51 -17v83l51 16v158l-51 -17v83l51 16v143h23v-137l87 30v135z" />
    <glyph glyph-name="Acircumflex" unicode="&#xc2;" horiz-adv-x="563" 
d="M406 207l-32 -66h-144l-28 -62c125 -17 188 -77 188 -178c0 -107 -76 -180 -184 -180c-44 0 -84 16 -84 42c0 19 15 34 34 34c6 0 74 -48 98 -48c51 0 88 62 88 118c0 92 -65 143 -196 154l78 176h124c27 0 43 6 48 18zM234 383h-192v16c57 0 68 7 68 66v290
c0 24 -6 36 -18 36c-9 0 -28 -5 -56 -16v12c29 16 73 39 132 70v-392c0 -58 9 -66 66 -66v-16zM504 383h-192v16c57 0 68 7 68 66v290c0 24 -6 36 -18 36c-9 0 -28 -5 -56 -16v12c29 16 73 39 132 70v-392c0 -58 9 -66 66 -82z" />
    <glyph glyph-name="Atilde" unicode="&#xc3;" horiz-adv-x="600" 
d="M406 207l-32 -66h-144l-28 -62c125 -17 188 -77 188 -178c0 -107 -76 -180 -184 -180c-44 0 -84 16 -84 42c0 19 15 34 34 34c6 0 74 -48 98 -48c51 0 88 62 88 118c0 92 -65 143 -196 154l78 176h124c27 0 43 6 48 18zM234 383h-192v16c57 0 68 7 68 66v290
c0 24 -6 36 -18 36c-9 0 -28 -5 -56 -16v12c29 16 73 39 132 70v-392c0 -58 9 -66 66 -66v-16zM342 373c-41 0 -62 15 -62 46c0 13 11 20 32 20c8 0 61 -38 98 -38c59 0 92 47 92 106c0 69 -45 105 -121 105c-9 0 -18 0 -27 -1v10c64 16 122 55 122 116c0 43 -29 72 -74 72
c-47 0 -83 -27 -110 -80l-10 4c35 88 74 122 144 122c59 0 102 -38 102 -94c0 -40 -20 -73 -60 -98c53 -19 86 -68 86 -124c0 -102 -84 -166 -212 -166z" />
    <glyph glyph-name="Agrave" unicode="&#xc0;" horiz-adv-x="355" 
d="M306 207l-32 -66h-144l-28 -62c125 -17 188 -77 188 -178c0 -107 -76 -180 -184 -180c-44 0 -84 16 -84 42c0 19 15 34 34 34c6 0 74 -48 98 -48c51 0 88 62 88 118c0 92 -65 143 -196 154l78 176h124c27 0 43 6 48 18zM306 807l-32 -66h-144l-28 -62
c125 -17 188 -77 188 -178c0 -107 -76 -180 -184 -180c-44 0 -84 16 -84 42c0 19 15 34 34 34c6 0 74 -48 98 -48c51 0 88 62 88 118c0 92 -65 143 -196 154l78 176h124c19 0 33 3 33 9c0 2 -2 6 -7 9z" />
    <glyph glyph-name="Aring" unicode="&#xc5;" horiz-adv-x="544" 
d="M422 59c0 -170 -117 -270 -284 -288l-2 12c95 16 194 107 216 202c-27 -25 -62 -38 -106 -38c-80 0 -126 57 -126 140c0 87 58 168 148 168c93 0 154 -85 154 -196zM276 -21c33 0 60 12 80 36c1 13 2 28 2 44c0 120 -31 180 -94 180c-48 0 -82 -55 -82 -128
c0 -88 31 -132 94 -132zM234 383h-192v16c57 0 68 7 68 66v290c0 24 -6 36 -18 36c-9 0 -28 -5 -56 -16v12c29 16 73 39 132 70v-392c0 -58 9 -66 66 -66v-16zM504 383h-192v16c57 0 68 7 68 66v290c0 24 -6 36 -18 36c-9 0 -28 -5 -56 -16v12c29 16 73 39 132 70v-392
c0 -58 9 -66 66 -82z" />
    <glyph glyph-name="AE" unicode="&#xc6;" horiz-adv-x="596" 
d="M422 59c0 -170 -117 -270 -284 -288l-2 12c95 16 194 107 216 202c-27 -25 -62 -38 -106 -38c-80 0 -126 57 -126 140c0 87 58 168 148 168c93 0 154 -85 154 -196zM276 -21c33 0 60 12 80 36c1 13 2 28 2 44c0 120 -31 180 -94 180c-48 0 -82 -55 -82 -128
c0 -88 31 -132 94 -132zM234 383h-192v16c57 0 68 7 68 66v290c0 24 -6 36 -18 36c-9 0 -28 -5 -56 -16v12c29 16 73 39 132 70v-392c0 -58 9 -66 66 -66v-16zM342 373c-41 0 -62 15 -62 46c0 13 11 20 32 20c8 0 61 -38 98 -38c59 0 92 47 92 106c0 69 -45 105 -121 105
c-9 0 -18 0 -27 -1v10c64 16 122 55 122 116c0 43 -29 72 -74 72c-47 0 -83 -27 -110 -80l-10 4c35 88 74 122 144 122c59 0 102 -38 102 -94c0 -40 -20 -73 -60 -98c53 -19 86 -68 86 -124c0 -102 -84 -166 -212 -166z" />
    <glyph glyph-name="Adieresis" unicode="&#xc4;" horiz-adv-x="377" 
d="M322 659c0 -170 -117 -270 -284 -288l-2 12c95 16 194 107 216 202c-27 -25 -62 -38 -106 -38c-80 0 -126 57 -126 140c0 87 58 168 148 168c93 0 154 -85 154 -196zM176 579c33 0 60 12 80 36c1 13 2 28 2 44c0 120 -31 180 -94 180c-48 0 -82 -55 -82 -128
c0 -88 31 -132 94 -132zM322 59c0 -170 -117 -270 -284 -288l-2 12c95 16 194 107 216 202c-27 -25 -62 -38 -106 -38c-80 0 -126 57 -126 140c0 87 58 168 148 168c93 0 154 -85 154 -196zM176 -21c33 0 60 12 80 36c1 13 2 28 2 44c0 120 -31 180 -94 180
c-48 0 -82 -55 -82 -128c0 -88 31 -132 94 -132z" />
    <glyph glyph-name="Ccedilla" unicode="&#xc7;" horiz-adv-x="541" 
d="M234 -217h-192v16c57 0 68 7 68 66v290c0 24 -6 36 -18 36c-9 0 -28 -5 -56 -16v12c29 16 73 39 132 70v-392c0 -58 9 -66 66 -66v-16zM504 -217h-192v16c57 0 68 7 68 66v290c0 24 -6 36 -18 36c-9 0 -28 -5 -56 -16v12c29 16 73 39 132 70v-392c0 -58 9 -66 66 -82z
M234 383h-192v16c57 0 68 7 68 66v290c0 24 -6 36 -18 36c-9 0 -28 -5 -56 -16v12c29 16 73 39 132 70v-392c0 -58 9 -66 66 -66v-16zM504 383h-192v16c57 0 68 7 68 66v290c0 24 -6 36 -18 36c-9 0 -28 -5 -56 -16v12c29 16 73 39 132 70v-392c0 -58 9 -66 66 -82z" />
    <glyph glyph-name="Egrave" unicode="&#xc8;" horiz-adv-x="599" 
d="M234 -217h-192v16c57 0 68 7 68 66v290c0 24 -6 36 -18 36c-9 0 -28 -5 -56 -16v12c29 16 73 39 132 70v-392c0 -58 9 -66 66 -66v-16zM504 -217h-192v16c57 0 68 7 68 66v290c0 24 -6 36 -18 36c-9 0 -28 -5 -56 -16v12c29 16 73 39 132 70v-392c0 -58 9 -66 66 -82z
M234 383h-192v16c57 0 68 7 68 66v290c0 24 -6 36 -18 36c-9 0 -28 -5 -56 -16v12c29 16 73 39 132 70v-392c0 -58 9 -66 66 -66v-16zM342 373c-41 0 -62 15 -62 46c0 13 11 20 32 20c8 0 61 -38 98 -38c59 0 92 47 92 106c0 69 -45 105 -121 105c-9 0 -18 0 -27 -1v10
c64 16 122 55 122 116c0 43 -29 72 -74 72c-47 0 -83 -27 -110 -80l-10 4c35 88 74 122 144 122c59 0 102 -38 102 -94c0 -40 -20 -73 -60 -98c53 -19 86 -68 86 -124c0 -102 -84 -166 -212 -166z" />
    <glyph glyph-name="Eacute" unicode="&#xc9;" horiz-adv-x="597" 
d="M234 383h-192v16c57 0 68 7 68 66v290c0 24 -6 36 -18 36c-9 0 -28 -5 -56 -16v12c29 16 73 39 132 70v-392c0 -58 9 -66 66 -66v-16zM342 373c-41 0 -62 15 -62 46c0 13 11 20 32 20c8 0 61 -38 98 -38c59 0 92 47 92 106c0 69 -45 105 -121 105c-9 0 -18 0 -27 -1v10
c64 16 122 55 122 116c0 43 -29 72 -74 72c-47 0 -83 -27 -110 -80l-10 4c35 88 74 122 144 122c59 0 102 -38 102 -94c0 -40 -20 -73 -60 -98c53 -19 86 -68 86 -124c0 -102 -84 -166 -212 -166zM234 -217h-192v16c57 0 68 7 68 66v290c0 24 -6 36 -18 36
c-9 0 -28 -5 -56 -16v12c29 16 73 39 132 70v-392c0 -58 9 -66 66 -66v-16zM342 -227c-41 0 -62 15 -62 46c0 13 11 20 32 20c8 0 61 -38 98 -38c59 0 92 47 92 106c0 69 -45 105 -121 105c-9 0 -18 0 -27 -1v10c64 16 122 55 122 116c0 43 -29 72 -74 72
c-47 0 -83 -27 -110 -80l-10 4c35 88 74 122 144 122c59 0 102 -38 102 -94c0 -40 -20 -73 -60 -98c53 -19 86 -68 86 -124c0 -102 -84 -166 -212 -166z" />
    <glyph glyph-name="agrave" unicode="&#xe0;" horiz-adv-x="253" 
d="M30 -300v535h33l-6 -270c37 43 46 47 81 47c56 0 94 -40 94 -98c0 -83 -84 -120 -150 -172zM115 -21c-67 0 -58 -152 -58 -156c0 -27 2 -49 7 -65c72 57 107 109 107 155c0 36 -22 66 -56 66z" />
    <glyph glyph-name="adieresis" unicode="&#xe4;" horiz-adv-x="300" 
d="M186 -111v159l-87 -29v-158zM186 265h22v-129l53 17v-83l-53 -16v-158l53 17v-83l-53 -16v-143h-22v137l-87 -29v-136h-23v129l-51 -17v83l51 16v158l-51 -17v83l51 16v143h23v-137l87 30v135zM30 350v535h33l-6 -270c37 43 46 47 81 47c56 0 94 -40 94 -98
c0 -83 -84 -120 -150 -172zM115 629c-67 0 -58 -152 -58 -156c0 -27 2 -49 7 -65c72 57 107 109 107 155c0 36 -22 66 -56 66z" />
    <glyph glyph-name="atilde" unicode="&#xe3;" horiz-adv-x="300" 
d="M186 -111v159l-87 -29v-158zM186 265h22v-129l53 17v-83l-53 -16v-158l53 17v-83l-53 -16v-143h-22v137l-87 -29v-136h-23v129l-51 -17v83l51 16v158l-51 -17v83l51 16v143h23v-137l87 30v135z" />
    <glyph glyph-name="acircumflex" unicode="&#xe2;" horiz-adv-x="300" 
d="M30 -300v535h33l-6 -270c37 43 46 47 81 47c56 0 94 -40 94 -98c0 -83 -84 -120 -150 -172zM115 -21c-67 0 -58 -152 -58 -156c0 -27 2 -49 7 -65c72 57 107 109 107 155c0 36 -22 66 -56 66zM186 539v159l-87 -29v-158zM186 915h22v-129l53 17v-83l-53 -16v-158l53 17
v-83l-53 -16v-143h-22v137l-87 -29v-136h-23v129l-51 -17v83l51 16v158l-51 -17v83l51 16v143h23v-137l87 30v135z" />
    <glyph glyph-name="mu" unicode="&#xb5;" horiz-adv-x="1720" 
d="M710 640c-82 0 -88 -19 -88 -98v-555h-26l-450 549v-440c0 -61 24 -74 88 -74v-22h-222v22c82 0 90 19 90 98v452c0 45 -30 68 -90 68v22h168l396 -494v398c0 61 -24 74 -88 74v22h222v-22zM730 44c0 32 26 58 58 58s58 -26 58 -58s-26 -57 -58 -57s-58 25 -58 57z
M1550 44c0 32 26 58 58 58s58 -26 58 -58s-26 -57 -58 -57s-58 25 -58 57zM1478 110c-67 -82 -158 -123 -274 -123c-198 0 -330 134 -330 333c0 194 143 358 338 358c69 0 181 -42 190 -42c16 0 29 13 38 38h34v-234h-28c-24 117 -103 194 -220 194
c-150 0 -242 -125 -242 -306c0 -178 97 -298 248 -298c88 0 164 35 228 106z" />
    <glyph glyph-name="Ecircumflex" unicode="&#xca;" horiz-adv-x="314" 
d="M265 47h-51v-90h-43v90h-154v37l163 237h34v-237h51v-37zM171 275l-130 -191h130v191zM275 423l-32 -74h-208v8l103 112c41 46 61 87 61 126c0 44 -27 77 -70 77c-37 0 -64 -24 -82 -73l-9 2c13 65 51 113 112 113c54 0 94 -48 94 -102c0 -40 -18 -77 -52 -113l-105 -108
h129c22 0 39 12 51 37z" />
    <glyph glyph-name="Edieresis" unicode="&#xcb;" horiz-adv-x="321" 
d="M275 709l-119 -363h-33l104 320h-110c-30 0 -52 -17 -67 -48l-8 6l32 85h201zM268 341l1 -8c-99 -24 -144 -67 -162 -151c24 17 48 25 73 25c61 0 98 -49 98 -111c0 -72 -47 -128 -111 -128c-76 0 -123 68 -123 151c0 65 20 118 63 160c40 41 63 49 161 62zM229 76
c0 70 -24 105 -73 105c-22 0 -41 -9 -57 -25c-4 -15 -6 -32 -6 -51c0 -72 27 -118 79 -118c38 0 57 29 57 89z" />
    <glyph glyph-name="C" unicode="C" horiz-adv-x="692" 
d="M638 110c-67 -82 -158 -123 -274 -123c-198 0 -330 134 -330 333c0 194 143 358 338 358c69 0 181 -42 190 -42c16 0 29 13 38 38h34v-234h-28c-24 117 -103 194 -220 194c-150 0 -242 -125 -242 -306c0 -178 97 -298 248 -298c88 0 164 35 228 106z" />
    <glyph glyph-name="E" unicode="E" horiz-adv-x="625" 
d="M604 170l-44 -170h-546v22c83 0 90 17 90 98v422c0 81 -7 98 -90 98v22h538v-150h-22c-7 69 -38 104 -94 104h-176c-43 0 -54 -21 -54 -66v-186h176c59 0 98 37 98 96h22v-238h-22c0 59 -39 96 -98 96h-176v-206c0 -45 11 -66 54 -66h168c69 0 127 55 146 124h30z" />
    <glyph glyph-name="F" unicode="F" horiz-adv-x="572" 
d="M204 626v-260h122c61 0 78 26 86 90h18v-224h-18c0 67 -22 94 -86 94h-122v-208c0 -85 12 -100 96 -100v-18h-284v18c84 0 94 15 94 100v426c0 85 -10 100 -94 100v18h500v-146h-18c-24 89 -57 110 -148 110h-146z" />
    <glyph glyph-name="G" unicode="G" horiz-adv-x="723" 
d="M614 678l16 -210h-16c-39 117 -111 176 -218 176c-153 0 -248 -126 -248 -302c0 -182 106 -324 254 -324c48 0 93 12 136 36v192c0 76 -9 96 -86 96v20h256v-20c-69 0 -74 -26 -74 -96v-202c-72 -39 -149 -59 -232 -59c-208 0 -366 128 -366 335c0 193 145 358 350 358
c41 0 91 -11 150 -32c19 -7 31 -10 36 -10c15 0 23 14 24 42h18z" />
    <glyph glyph-name="guillemotright" unicode="&#xbb;" horiz-adv-x="623" 
d="M182 396c-68 0 -84 -63 -84 -142v-85c0 -32 2 -57 6 -78c65 43 145 169 145 237c0 36 -28 68 -67 68zM311 20v208c-43 -66 -152 -143 -241 -208v714h39l-9 -350c25 41 63 62 113 62c39 0 72 -13 98 -41v329h39l-9 -350c26 41 63 62 113 62c69 0 134 -53 134 -124
c0 -101 -138 -196 -277 -302zM423 396c-33 0 -59 -17 -76 -53c0 -48 -8 23 -8 -174c0 -32 2 -57 7 -78c64 43 145 169 145 237c0 36 -29 68 -68 68z" />
    <glyph glyph-name="edieresis" unicode="&#xeb;" horiz-adv-x="199" 
 />
    <glyph glyph-name="igrave" unicode="&#xec;" 
d="M23 496v397h24l-4 -200c27 32 34 35 59 35c42 0 71 -30 71 -74c0 -61 -62 -89 -111 -127zM86 703c-50 0 -43 -112 -43 -116c0 -20 1 -36 5 -48c54 42 80 81 80 115c0 27 -16 49 -42 49z" />
    <glyph glyph-name="iacute" unicode="&#xed;" 
d="M23 86v397h24l-4 -200c27 32 34 35 59 35c42 0 71 -30 71 -74c0 -61 -62 -89 -111 -127zM86 293c-50 0 -43 -112 -43 -116c0 -20 1 -36 5 -48c54 42 80 81 80 115c0 27 -16 49 -42 49z" />
    <glyph glyph-name="icircumflex" unicode="&#xee;" 
d="M24 -343v397h24l-4 -200c27 32 34 35 59 35c42 0 71 -30 71 -74c0 -61 -62 -89 -111 -127zM87 -136c-50 0 -43 -112 -43 -116c0 -20 1 -36 5 -48c54 42 80 81 80 115c0 27 -16 49 -42 49z" />
    <glyph glyph-name="idieresis" unicode="&#xef;" 
d="M123 667v112l-61 -21v-111zM123 935h16v-91l37 12v-59l-37 -11v-111l37 11v-58l-37 -12v-101h-16v97l-61 -20v-97h-16v91l-37 -11v58l37 12v111l-37 -12v59l37 11v101h16v-97l61 22v95z" />
    <glyph glyph-name="eth" unicode="&#xf0;" 
d="M126 224v115l-63 -21v-114zM126 499h16v-93l38 12v-60l-38 -12v-114l38 12v-60l-38 -12v-103h-16v99l-63 -21v-99h-16v94l-38 -12v59l38 13v114l-38 -12v59l38 12v104h16v-99l63 21v98z" />
    <glyph glyph-name="ntilde" unicode="&#xf1;" 
d="M126 -206v111l-60 -20v-111zM126 60h16v-90l37 11v-58l-37 -11v-110l37 11v-58l-37 -11v-100h-16v96l-60 -20v-96h-16v91l-36 -12v58l36 11v111l-36 -12v58l36 11v100h16v-96l60 21v95z" />
    <glyph glyph-name="Igrave" unicode="&#xcc;" horiz-adv-x="381" 
d="M293 314c0 -127 -87 -202 -213 -216l-1 9c71 12 145 80 162 152c-20 -19 -47 -29 -80 -29c-60 0 -94 43 -94 105c0 65 43 136 111 136c70 0 115 -74 115 -157zM184 254c25 0 45 9 60 27c1 10 1 21 1 33c0 90 -23 145 -70 145c-36 0 -62 -51 -62 -106c0 -66 24 -99 71 -99
zM293 -76c0 -127 -87 -202 -213 -216l-1 9c71 12 145 80 162 152c-20 -19 -47 -29 -80 -29c-60 0 -94 43 -94 105c0 65 43 126 111 126c70 0 115 -64 115 -147zM184 -136c25 0 45 9 60 27c1 10 1 21 1 33c0 90 -23 135 -70 135c-36 0 -62 -41 -62 -96c0 -66 24 -99 71 -99z
M160 520h-144v12c43 0 51 5 51 49v218c0 18 -5 27 -14 27c-6 0 -21 -4 -42 -12v9c22 12 55 29 99 52v-294c0 -43 7 -49 50 -49v-12zM362 520h-144v12c43 0 51 5 51 49v218c0 18 -4 27 -13 27c-7 0 -21 -4 -42 -12v9c22 12 55 29 99 52v-294c0 -43 7 -49 49 -61z" />
    <glyph glyph-name="Iacute" unicode="&#xcd;" horiz-adv-x="422" 
d="M312 -76c0 -127 -87 -202 -213 -216l-1 9c71 12 145 80 162 152c-20 -19 -47 -29 -80 -29c-60 0 -94 43 -94 105c0 65 43 126 111 126c70 0 115 -64 115 -147zM203 -136c25 0 45 9 60 27c1 10 1 21 1 33c0 90 -23 135 -70 135c-36 0 -62 -41 -62 -96c0 -66 24 -99 71 -99
zM165 526h-141v15c42 0 49 4 49 45v214c0 18 -4 28 -14 28c-6 0 -19 -5 -40 -13v9c22 12 52 27 97 51v-289c0 -41 7 -45 49 -45v-15zM244 519c-30 0 -46 11 -46 33c0 9 9 15 23 15c7 0 46 -26 72 -26c45 0 69 34 69 76c0 51 -33 78 -90 78c-5 0 -13 0 -19 -1v8
c47 12 89 41 89 85c0 32 -20 52 -55 52c-34 0 -61 -18 -79 -57l-8 3c26 63 54 89 106 89c42 0 75 -29 75 -69c0 -30 -15 -54 -43 -73c39 -13 62 -48 62 -91c0 -74 -62 -122 -156 -122zM164 115h-144v12c43 0 51 5 51 49v218c0 18 -5 27 -14 27c-6 0 -21 -4 -42 -12v9
c22 12 55 29 99 52v-294c0 -43 7 -49 50 -49v-12zM366 115h-144v12c43 0 51 5 51 49v218c0 18 -4 27 -13 27c-7 0 -21 -4 -42 -12v9c22 12 55 29 99 52v-294c0 -43 7 -49 49 -61z" />
    <glyph glyph-name="Icircumflex" unicode="&#xce;" horiz-adv-x="285" 
d="M251 710c0 -127 -87 -202 -213 -216l-1 9c71 12 145 80 162 152c-20 -19 -47 -29 -80 -29c-60 0 -94 43 -94 105c0 65 43 136 111 136c70 0 115 -74 115 -157zM142 650c25 0 45 9 60 27c1 10 1 21 1 33c0 90 -23 145 -70 145c-36 0 -62 -51 -62 -106c0 -66 24 -99 71 -99
zM251 320c0 -127 -87 -202 -213 -216l-1 9c71 12 145 80 162 152c-20 -19 -47 -29 -80 -29c-60 0 -94 43 -94 105c0 65 43 126 111 126c70 0 115 -64 115 -147zM142 260c25 0 45 9 60 27c1 10 1 21 1 33c0 90 -23 135 -70 135c-36 0 -62 -41 -62 -96c0 -66 24 -99 71 -99z
M243 60l-23 -48h-105l-20 -45c91 -12 136 -55 136 -129c0 -78 -55 -131 -133 -131c-31 0 -61 11 -61 30c0 14 11 26 24 26c6 0 54 -35 72 -35c37 0 64 44 64 86c0 66 -47 103 -142 111l56 128h90c8 0 28 -2 35 10z" />
    <glyph glyph-name="Idieresis" unicode="&#xcf;" horiz-adv-x="274" 
d="M253 724c0 -127 -87 -202 -213 -216l-1 9c71 12 145 80 162 152c-20 -19 -47 -29 -80 -29c-60 0 -94 43 -94 105c0 65 43 136 111 136c70 0 115 -74 115 -157zM144 664c25 0 45 9 60 27c1 10 1 21 1 33c0 90 -23 145 -70 145c-36 0 -62 -51 -62 -106c0 -66 24 -99 71 -99
zM225 51l-23 -48h-105l-20 -45c91 -12 136 -55 136 -129c0 -78 -55 -131 -133 -131c-31 0 -61 11 -61 30c0 14 11 26 24 26c6 0 54 -35 72 -35c37 0 64 44 64 86c0 66 -47 103 -142 111l56 128h90c8 0 28 -2 35 10zM235 451l-23 -48h-105l-20 -45c91 -12 136 -55 136 -129
c0 -78 -55 -131 -133 -131c-31 0 -61 11 -61 30c0 14 11 26 24 26c6 0 54 -35 72 -35c37 0 64 44 64 86c0 66 -47 103 -142 111l56 128h90c8 0 28 -2 35 10z" />
    <glyph glyph-name="quotesinglbase" unicode="&#x201a;" horiz-adv-x="330" 
d="M320 664l-321 -875l-44 14l313 877z" />
    <glyph glyph-name="Euro" unicode="&#x20ac;" horiz-adv-x="314" 
d="M40 262h252v-74h-252v74z" />
    <glyph glyph-name="quotedblleft" unicode="&#x201c;" horiz-adv-x="1162" 
d="M325 132c0 -83 -69 -133 -154 -133c-20 0 -84 23 -104 23c-12 0 -19 -5 -20 -14h-18v158h18c0 -72 55 -140 128 -140c45 0 82 25 82 68c0 97 -228 125 -228 248c0 74 71 124 142 124c21 0 81 -24 94 -24c10 0 14 4 14 11v3h18v-138h-18c0 13 -4 30 -13 50
c-24 54 -53 72 -99 72c-43 0 -74 -23 -74 -66c0 -28 19 -53 58 -76c87 -51 174 -84 174 -166zM1134 133c0 -83 -69 -133 -154 -133c-20 0 -84 23 -104 23c-12 0 -19 -5 -20 -14h-18v158h18c0 -72 55 -140 128 -140c45 0 82 25 82 68c0 97 -228 125 -228 248
c0 74 71 124 142 124c21 0 81 -24 94 -24c10 0 14 4 14 11v3h18v-138h-18c0 13 -4 30 -13 50c-24 54 -53 72 -99 72c-43 0 -74 -23 -74 -66c0 -28 19 -53 58 -76c87 -51 174 -84 174 -166zM796 50l-144 -51v79c-39 -53 -85 -79 -138 -79c-69 0 -122 46 -122 115v268
c0 49 2 52 -66 52v22h150v-294c0 -75 19 -102 74 -102c47 0 81 19 102 56v272c0 44 1 46 -66 46v22h150v-338c0 -38 11 -51 42 -51c5 0 11 0 18 1v-18z" />
    <glyph glyph-name="eacute" unicode="&#xe9;" horiz-adv-x="430" 
d="M422 158c-41 -111 -112 -167 -212 -167c-114 0 -188 104 -188 227c0 126 80 240 208 240c109 0 171 -75 174 -184h-312c0 -120 63 -214 160 -214c63 0 114 35 154 106zM308 308v14v6c0 56 -43 94 -102 94s-97 -38 -114 -114h216zM238 525l97 149l30 -19l-96 -151z" />
    <glyph glyph-name="florin" unicode="&#x192;" horiz-adv-x="392" 
d="M394 67v-27c-29 -32 -57 -48 -84 -48c-36 0 -54 21 -54 66c-57 -45 -104 -68 -141 -68c-50 0 -84 49 -84 96c0 80 53 122 221 175v54c0 50 -23 76 -67 76c-31 0 -63 -17 -63 -45c0 -8 4 -27 4 -35c0 -21 -20 -39 -41 -39c-25 0 -36 13 -36 39c0 57 80 101 149 101
c82 0 130 -46 130 -128v-203c0 -24 6 -36 19 -36c11 0 26 7 47 22zM252 81v155c-53 -17 -85 -29 -95 -36c-32 -18 -47 -46 -47 -83c0 -39 20 -72 59 -72c24 0 51 12 83 36z" />
    <glyph glyph-name="ellipsis" unicode="&#x2026;" horiz-adv-x="243" 
d="M173 571c0 -25 -23 -47 -47 -47s-45 21 -45 43c0 24 22 47 47 47c24 0 45 -22 45 -43zM164 410v-307c0 -78 11 -87 70 -87v-16h-216v16c59 0 70 9 70 87v190c0 36 -10 54 -29 54c-8 0 -22 -2 -41 -7v20z" />
    <glyph glyph-name="daggerdbl" unicode="&#x2021;" horiz-adv-x="431" 
d="M361 614v-513c0 -30 11 -45 34 -45h16c10 1 16 2 20 2v-17c-57 -10 -106 -28 -146 -53v68c-26 -43 -64 -64 -113 -64c-95 0 -161 89 -161 195c0 105 74 225 184 225c36 0 66 -12 90 -34v135c0 24 -6 39 -20 43h-50v16zM285 95v213c0 2 -2 8 -5 18c-16 39 -43 59 -80 59
c-72 0 -111 -75 -111 -171c0 -104 43 -176 115 -176c39 0 66 19 81 57z" />
    <glyph glyph-name="perthousand" unicode="&#x2030;" horiz-adv-x="226" 
d="M191 571c0 -25 -23 -47 -47 -47s-45 21 -45 43c0 24 22 47 47 47c24 0 45 -22 45 -43zM38 340v20l144 52v-381c0 -151 -48 -226 -144 -226c-43 0 -86 19 -86 59c0 24 10 36 31 36c23 0 66 -56 89 -56c22 0 34 34 34 99v350c0 36 -9 54 -27 54c-8 0 -22 -2 -41 -7z" />
    <glyph glyph-name="guilsinglleft" unicode="&#x2039;" horiz-adv-x="691" 
d="M684 0h-189v16c39 0 54 13 54 70v209c0 50 -23 74 -68 74c-36 0 -71 -19 -103 -56c3 -8 4 -29 5 -61v-90c-1 -44 -1 -68 -1 -70c0 -61 11 -76 59 -76v-16h-189v16c39 0 54 13 54 70v209c0 50 -21 74 -63 74c-36 0 -69 -19 -99 -58v-232c0 -48 15 -63 54 -63v-16h-189v16
c48 0 59 15 59 76v225c0 20 -5 32 -16 36h-43v16l135 43v-72c40 48 85 72 139 72c50 0 80 -24 90 -74c44 50 94 74 151 74c29 0 50 -7 65 -21c16 -17 36 -76 36 -99v-200c0 -61 11 -76 59 -76v-16z" />
    <glyph glyph-name="quoteleft" unicode="&#x2018;" horiz-adv-x="450" 
d="M441 0h-189v16c39 0 54 13 54 70v207c0 41 -24 71 -65 71c-35 0 -67 -18 -97 -53v-230c0 -51 15 -65 54 -65v-16h-189v16c43 0 59 14 59 69v230c0 35 -1 38 -59 38v16l135 43v-68c37 46 82 68 133 68c69 0 105 -40 105 -122v-198c0 -61 11 -76 59 -76v-16z" />
    <glyph glyph-name="quotedblright" unicode="&#x201d;" horiz-adv-x="265" 
d="M252 65c-36 -49 -76 -73 -119 -73c-53 0 -70 26 -70 114v267h-50v10c45 35 87 81 126 139v-119h95v-30h-95v-267c0 -42 13 -63 39 -63c21 0 41 12 61 34z" />
    <glyph glyph-name="endash" unicode="&#x2013;" horiz-adv-x="453" 
d="M31 196c0 115 83 216 201 216c116 0 195 -92 195 -205c0 -115 -83 -215 -202 -215c-116 0 -194 91 -194 204zM347 182c0 107 -47 201 -129 201c-70 0 -108 -63 -108 -160c0 -107 47 -201 129 -201c71 0 108 63 108 160z" />
    <glyph glyph-name="dieresis" unicode="&#xa8;" horiz-adv-x="435" 
d="M58 -110v928h57l-10 -468c65 74 80 81 140 81c98 0 164 -69 164 -169c0 -145 -147 -208 -260 -299zM206 374c-45 0 -66 -51 -91 -89c-6 -95 -10 -156 -10 -182c0 -47 4 -84 13 -112c123 99 184 189 184 268c0 63 -37 115 -96 115z" />
    <glyph glyph-name="copyright" unicode="&#xa9;" horiz-adv-x="481" 
d="M322 231v275l-150 -51v-273zM322 889h39v-223l91 28v-143l-91 -28v-273l91 28v-143l-91 -28v-247h-39v236l-150 -49v-237h-39v224l-89 -29v143l89 29v273l-89 -29v143l89 29v247h39v-237l150 52v234z" />
    <glyph glyph-name="ordfeminine" unicode="&#xaa;" horiz-adv-x="397" 
d="M344 -202h-39v294l-249 -70v868h39v-322l249 70v-840zM95 434v-268l210 71v263z" />
    <glyph glyph-name="Zcaron" unicode="&#x17d;" horiz-adv-x="811" 
d="M785 -1h-252v20c75 0 81 15 81 88v387l-236 -495h-14l-225 495v-410c0 -47 17 -65 79 -65v-20h-200v20c74 0 81 17 81 88v407c0 40 -27 61 -81 61v20h175l207 -452l214 452h171v-20c-71 -2 -79 -19 -79 -88v-380c0 -73 4 -88 79 -88v-20z" />
    <glyph glyph-name="quotedblbase" unicode="&#x201e;" horiz-adv-x="392" 
d="M394 67v-27c-29 -32 -57 -48 -84 -48c-36 0 -54 21 -54 66c-57 -45 -104 -68 -141 -68c-50 0 -84 49 -84 96c0 80 53 122 221 175v54c0 50 -23 76 -67 76c-31 0 -63 -17 -63 -45c0 -8 4 -27 4 -35c0 -21 -20 -39 -41 -39c-25 0 -36 13 -36 39c0 57 80 101 149 101
c82 0 130 -46 130 -128v-203c0 -24 6 -36 19 -36c11 0 26 7 47 22zM252 81v155c-53 -17 -85 -29 -95 -36c-32 -18 -47 -46 -47 -83c0 -39 20 -72 59 -72c24 0 51 12 83 36z" />
    <glyph glyph-name="dagger" unicode="&#x2020;" horiz-adv-x="243" 
d="M173 571c0 -25 -23 -47 -47 -47s-45 21 -45 43c0 24 22 47 47 47c24 0 45 -22 45 -43zM164 410v-307c0 -78 11 -87 70 -87v-16h-216v16c59 0 70 9 70 87v190c0 36 -10 54 -29 54c-8 0 -22 -2 -41 -7v20z" />
    <glyph glyph-name="circumflex" unicode="&#x2c6;" horiz-adv-x="431" 
d="M361 614v-513c0 -30 11 -45 34 -45h16c10 1 16 2 20 2v-17c-57 -10 -106 -28 -146 -53v68c-26 -43 -64 -64 -113 -64c-95 0 -161 89 -161 195c0 105 74 225 184 225c36 0 66 -12 90 -34v135c0 24 -6 39 -20 43h-50v16zM285 95v213c0 2 -2 8 -5 18c-16 39 -43 59 -80 59
c-72 0 -111 -75 -111 -171c0 -104 43 -176 115 -176c39 0 66 19 81 57z" />
    <glyph glyph-name="Scaron" unicode="&#x160;" horiz-adv-x="226" 
d="M191 571c0 -25 -23 -47 -47 -47s-45 21 -45 43c0 24 22 47 47 47c24 0 45 -22 45 -43zM38 340v20l144 52v-381c0 -151 -48 -226 -144 -226c-43 0 -86 19 -86 59c0 24 10 36 31 36c23 0 66 -56 89 -56c22 0 34 34 34 99v350c0 36 -9 54 -27 54c-8 0 -22 -2 -41 -7z" />
    <glyph glyph-name="OE" unicode="&#x152;" horiz-adv-x="691" 
d="M684 0h-189v16c39 0 54 13 54 70v209c0 50 -23 74 -68 74c-36 0 -71 -19 -103 -56c3 -8 4 -29 5 -61v-90c-1 -44 -1 -68 -1 -70c0 -61 11 -76 59 -76v-16h-189v16c39 0 54 13 54 70v209c0 50 -21 74 -63 74c-36 0 -69 -19 -99 -58v-232c0 -48 15 -63 54 -63v-16h-189v16
c48 0 59 15 59 76v225c0 20 -5 32 -16 36h-43v16l135 43v-72c40 48 85 72 139 72c50 0 80 -24 90 -74c44 50 94 74 151 74c29 0 50 -7 65 -21c16 -17 36 -76 36 -99v-200c0 -61 11 -76 59 -76v-16z" />
    <glyph glyph-name="quoteright" unicode="&#x2019;" horiz-adv-x="450" 
d="M441 0h-189v16c39 0 54 13 54 70v207c0 41 -24 71 -65 71c-35 0 -67 -18 -97 -53v-230c0 -51 15 -65 54 -65v-16h-189v16c43 0 59 14 59 69v230c0 35 -1 38 -59 38v16l135 43v-68c37 46 82 68 133 68c69 0 105 -40 105 -122v-198c0 -61 11 -76 59 -76v-16z" />
    <glyph glyph-name="bullet" unicode="&#x2022;" horiz-adv-x="265" 
d="M252 65c-36 -49 -76 -73 -119 -73c-53 0 -70 26 -70 114v267h-50v10c45 35 87 81 126 139v-119h95v-30h-95v-267c0 -42 13 -63 39 -63c21 0 41 12 61 34z" />
    <glyph glyph-name="emdash" unicode="&#x2014;" horiz-adv-x="453" 
d="M31 196c0 115 83 216 201 216c116 0 195 -92 195 -205c0 -115 -83 -215 -202 -215c-116 0 -194 91 -194 204zM347 182c0 107 -47 201 -129 201c-70 0 -108 -63 -108 -160c0 -107 47 -201 129 -201c71 0 108 63 108 160z" />
    <glyph glyph-name="comma" unicode="," horiz-adv-x="1462" 
d="M767 -4h-210v18c43 0 60 14 60 78v232c0 55 -25 82 -76 82c-40 0 -78 -21 -114 -62c3 -9 5 -32 6 -68v-100c-1 -49 -2 -75 -2 -78c0 -68 13 -84 66 -84v-18h-210v18c43 0 60 14 60 78v232c0 55 -23 82 -70 82c-40 0 -77 -21 -110 -64v-258c0 -54 17 -70 60 -70v-18h-210
v18c53 0 66 16 66 84v250c0 23 -6 36 -18 40h-48v18l150 48v-80c44 53 95 80 154 80c56 0 89 -27 100 -82c49 55 105 82 168 82c32 0 56 -8 72 -24c18 -18 40 -84 40 -110v-222c0 -68 13 -84 66 -84v-18zM1195 81v-30c-32 -35 -63 -53 -94 -53c-39 0 -59 24 -60 73
c-63 -50 -115 -75 -156 -75c-56 0 -94 54 -94 107c0 89 59 135 246 194v60c0 56 -25 84 -74 84c-35 0 -70 -18 -70 -50c0 -8 4 -30 4 -38c0 -24 -22 -44 -46 -44c-27 0 -40 15 -40 44c0 63 89 112 166 112c91 0 144 -51 144 -142v-226c0 -27 7 -40 22 -40c12 0 29 8 52 24z
M1037 97v172c-59 -19 -94 -32 -106 -40c-35 -20 -52 -51 -52 -92c0 -43 23 -80 66 -80c27 0 57 13 92 40zM1389 647c0 -27 -25 -52 -52 -52s-50 24 -50 48c0 27 25 52 52 52s50 -24 50 -48zM1219 391v22l160 58v-424c0 -167 -53 -251 -160 -251c-48 0 -95 21 -95 66
c0 27 11 40 34 40c26 0 74 -62 99 -62s38 37 38 110v389c0 40 -10 60 -30 60c-9 0 -25 -3 -46 -8z" />
    <glyph glyph-name="asterisk" unicode="*" horiz-adv-x="460" 
d="M228 472l-34 20c-62 20 -128 39 -128 68c0 21 19 40 40 40s98 -90 98 -90l40 -28l-2 58c0 24 -26 101 -26 118c0 19 13 28 38 28c24 0 36 -10 36 -30c0 -18 -28 -92 -28 -116l-2 -58l40 28s77 90 98 90s40 -19 40 -40c0 -29 -66 -48 -128 -68l-34 -20l34 -22
c1 -1 27 -10 76 -26c35 -12 52 -26 52 -42c0 -21 -19 -40 -40 -40c-19 0 -101 92 -98 90l-40 30l2 -48c0 -24 28 -101 28 -118c0 -19 -13 -28 -38 -28c-24 0 -36 10 -36 30c0 13 26 93 26 116l2 46l-40 -28s-77 -90 -98 -90s-40 19 -40 40c0 16 17 30 52 42
c49 16 75 25 76 26z" />
    <glyph glyph-name="plus" unicode="+" horiz-adv-x="542" 
d="M250 496h64v-220h220v-64h-220v-219h-64v219h-220v64h220v220z" />
    <glyph glyph-name="onequarter" unicode="&#xbc;" horiz-adv-x="821" 
d="M0 2l657 657h164l-657 -657h-164z" />
    <glyph glyph-name="onehalf" unicode="&#xbd;" horiz-adv-x="1009" 
d="M877 35c0 23 19 43 42 43c24 0 44 -20 44 -43c0 -24 -20 -43 -44 -43c-23 0 -42 19 -42 43zM385 67v-27c-29 -31 -57 -48 -85 -48c-35 0 -53 22 -54 66c-56 -45 -103 -67 -140 -67c-51 0 -85 48 -85 96c0 80 53 121 222 175v54c0 50 -23 75 -67 75c-31 0 -63 -16 -63 -45
c0 -7 4 -27 4 -34c0 -22 -20 -40 -42 -40c-24 0 -36 14 -36 40c0 57 80 101 150 101c82 0 129 -46 129 -128v-203c0 -25 7 -36 20 -36c11 0 26 7 47 21zM243 82v154c-53 -17 -85 -28 -96 -36c-31 -18 -47 -46 -47 -82c0 -39 21 -72 60 -72c24 0 51 11 83 36zM614 1h-216v16
c62 0 71 17 71 79v418c0 40 -1 43 -71 43v16l146 41v-511c0 -77 11 -86 70 -86v-16zM845 65c-36 -48 -76 -73 -119 -73c-53 0 -70 27 -70 115v266h-51v11c46 35 88 81 126 139v-119h96v-31h-96v-266c0 -43 14 -63 40 -63c21 0 40 11 61 34z" />
    <glyph glyph-name="Ntilde" unicode="&#xd1;" horiz-adv-x="323" 
d="M265 441h-51v-90h-43v90h-154v37l163 237h34v-237h51v-37zM171 669l-130 -191h130v191zM275 30l-32 -74h-208v8l103 112c41 46 61 87 61 126c0 44 -27 77 -70 77c-37 0 -64 -24 -82 -73l-9 2c13 65 51 113 112 113c54 0 94 -48 94 -102c0 -40 -18 -77 -52 -113l-105 -108
h129c22 0 39 12 51 37z" />
    <glyph glyph-name="Eth" unicode="&#xd0;" horiz-adv-x="840" 
d="M324 732l2 -10c-128 -31 -187 -87 -210 -196c31 21 62 32 94 32c80 0 128 -64 128 -144c0 -93 -61 -166 -144 -166c-99 0 -160 88 -160 196c0 84 27 153 82 208c52 52 81 63 208 80zM274 388c0 91 -31 136 -94 136c-29 0 -54 -11 -74 -32c-5 -19 -8 -41 -8 -66
c0 -94 35 -154 102 -154c49 0 74 39 74 116zM822 274c0 -170 -116 -269 -284 -287l-2 12c95 14 194 107 216 201c-27 -25 -61 -38 -104 -38c-80 0 -128 57 -128 140c0 87 58 168 148 168c96 0 154 -83 154 -196zM676 194c33 0 60 12 80 36c1 13 2 28 2 44
c0 120 -31 180 -92 180c-51 0 -82 -53 -82 -128c0 -88 31 -132 92 -132zM636 754l38 -24l-440 -761l-38 24z" />
    <glyph glyph-name="ograve" unicode="&#xf2;" horiz-adv-x="296" 
d="M3 -62h252v-74h-252v74z" />
    <glyph glyph-name="oacute" unicode="&#xf3;" horiz-adv-x="288" 
d="M3 -62h252v-74h-252v74zM3 568h252v-74h-252v74z" />
    <glyph glyph-name="ocircumflex" unicode="&#xf4;" horiz-adv-x="452" 
d="M77 -62h252v-74h-252v74zM178 827h52v-177h177v-51h-177v-177h-52v177h-177v51h177v177z" />
    <glyph glyph-name="otilde" unicode="&#xf5;" horiz-adv-x="433" 
d="M178 106h52v-177h177v-51h-177v-177h-52v177h-177v51h177v177z" />
    <glyph glyph-name="odieresis" unicode="&#xf6;" horiz-adv-x="431" 
d="M78 568h252v-74h-252v74zM178 106h52v-177h177v-51h-177v-177h-52v177h-177v51h177v177z" />
    <glyph glyph-name="divide" unicode="&#xf7;" horiz-adv-x="436" 
d="M180 106h52v-177h177v-51h-177v-177h-52v177h-177v51h177v177zM180 827h52v-177h177v-51h-177v-177h-52v177h-177v51h177v177z" />
    <glyph glyph-name="oslash" unicode="&#xf8;" 
d="M35 730h185v-54h-185v54z" />
    <glyph glyph-name="ugrave" unicode="&#xf9;" 
d="M28 330h185v-54h-185v54z" />
    <glyph glyph-name="uacute" unicode="&#xfa;" 
d="M24 -62h185v-54h-185v54z" />
    <glyph glyph-name="ucircumflex" unicode="&#xfb;" 
d="M126 848h37v-127h127v-37h-127v-127h-37v127h-128v37h128v127z" />
    <glyph glyph-name="udieresis" unicode="&#xfc;" 
d="M127 450h37v-127h127v-37h-127v-127h-37v127h-128v37h128v127z" />
    <glyph glyph-name="yacute" unicode="&#xfd;" 
d="M126 56h37v-127h127v-37h-127v-127h-37v127h-128v37h128v127z" />
    <glyph glyph-name="sterling" unicode="&#xa3;" horiz-adv-x="872" 
d="M0 2l664 664h172l-663 -664h-173zM126 501c0 36 31 66 68 66c35 0 66 -30 66 -66c0 -37 -31 -68 -66 -68c-37 0 -68 31 -68 68zM590 182c0 37 30 67 68 67c36 0 67 -30 67 -67s-31 -68 -67 -68c-38 0 -68 31 -68 68z" />
    <glyph glyph-name="degree" unicode="&#xb0;" horiz-adv-x="580" 
d="M85 453c49 49 115 77 185 77s136 -28 186 -77c49 -50 77 -115 77 -186c0 -69 -28 -135 -77 -185c-50 -49 -116 -76 -186 -76s-136 27 -185 76c-50 50 -77 116 -77 185c0 71 27 136 77 186zM126 123c38 -39 90 -60 144 -60c55 0 106 21 145 60s60 90 60 144
c0 55 -21 107 -60 145s-90 60 -145 60c-54 0 -106 -22 -144 -60c-39 -38 -60 -90 -60 -145c0 -54 21 -105 60 -144z" />
    <glyph glyph-name="plusminus" unicode="&#xb1;" horiz-adv-x="654" 
d="M594 554l-106 -107c40 -46 62 -105 62 -168c0 -70 -28 -136 -77 -185c-50 -50 -115 -77 -186 -77c-62 0 -121 21 -168 61l-118 -117l-41 41l119 118c-35 46 -53 101 -53 159c0 70 27 136 76 185c50 50 116 77 185 77c59 0 114 -19 159 -54l108 107zM83 279
c0 -43 13 -84 37 -118l286 285c-35 24 -76 37 -119 37c-54 0 -105 -21 -144 -60c-39 -38 -60 -89 -60 -144zM492 279c0 47 -16 91 -45 127l-287 -287c36 -29 81 -45 127 -45c55 0 107 22 145 60c38 39 60 90 60 145z" />
    <glyph glyph-name="twosuperior" unicode="&#xb2;" horiz-adv-x="621" 
d="M540 2h-541l271 519zM122 76h295l-147 298z" />
    <glyph glyph-name="space" unicode=" " horiz-adv-x="128" 
 />
    <glyph glyph-name="tilde" unicode="&#x2dc;" horiz-adv-x="450" 
d="M444 390c-50 0 -54 -11 -54 -60v-343h-16l-279 339v-272c0 -37 15 -45 55 -45v-14h-138v14c51 0 56 11 56 60v279c0 28 -18 42 -56 42v14h104l245 -305v246c0 37 -14 45 -54 45v14h137v-14z" />
    <glyph glyph-name="trademark" unicode="&#x2122;" horiz-adv-x="453" 
d="M444 660c-50 0 -54 -11 -54 -60v-343h-16l-279 339v-272c0 -37 15 -45 55 -45v-14h-138v14c51 0 56 11 56 60v279c0 28 -18 42 -56 42v14h104l245 -305v246c0 37 -14 45 -54 45v14h137v-14z" />
    <glyph glyph-name="scaron" unicode="&#x161;" horiz-adv-x="1103" 
d="M302 304h-17c-20 77 -60 115 -116 115c-40 0 -70 -23 -70 -62c0 -63 89 -88 158 -131c37 -24 55 -62 55 -100c0 -72 -64 -118 -136 -118c-18 0 -80 20 -98 20c-14 0 -22 -6 -22 -16v-4h-13l-19 137h17c28 -75 72 -112 130 -112c44 0 79 27 79 70c0 71 -85 94 -152 136
c-36 22 -54 59 -54 96c0 66 57 114 122 114c18 0 74 -22 91 -22c11 0 18 7 20 20h13zM769 429c-51 0 -55 -11 -55 -62v-185c0 -106 -61 -164 -167 -164c-103 0 -157 55 -157 157v192c0 51 -4 62 -56 62v14h177v-14c-53 0 -56 -11 -56 -62v-215c0 -67 40 -107 107 -107
c82 0 123 46 123 140v182c0 58 -10 62 -56 62v14h140v-14zM1062 304h-17c-20 77 -60 115 -116 115c-40 0 -70 -23 -70 -62c0 -63 89 -88 158 -131c37 -24 55 -62 55 -100c0 -72 -64 -118 -136 -118c-18 0 -80 20 -98 20c-14 0 -22 -6 -22 -16v-4h-13l-19 137h17
c28 -75 72 -112 130 -112c44 0 79 27 79 70c0 71 -85 94 -152 136c-36 22 -54 59 -54 96c0 66 57 114 122 114c18 0 74 -22 91 -22c11 0 18 7 20 20h13z" />
    <glyph glyph-name="guilsinglright" unicode="&#x203a;" horiz-adv-x="424" 
d="M207 -13c-111 0 -202 103 -202 212s91 211 202 211c112 0 203 -102 203 -211s-91 -212 -203 -212zM207 384c-82 0 -135 -79 -135 -185c0 -107 54 -187 135 -187c82 0 135 80 135 187c0 106 -52 185 -135 185z" />
    <glyph glyph-name="oe" unicode="&#x153;" horiz-adv-x="422" 
d="M209 257c-111 0 -202 103 -202 212s91 211 202 211c112 0 203 -102 203 -211s-91 -212 -203 -212zM209 654c-82 0 -135 -79 -135 -185c0 -107 54 -187 135 -187c82 0 135 80 135 187c0 106 -52 185 -135 185z" />
    <glyph glyph-name="guillemotleft" unicode="&#xab;" horiz-adv-x="492" 
d="M476 1h-126c0 67 -32 131 -93 192c-62 -61 -94 -125 -94 -192h-125v126c67 0 131 31 192 93c-61 62 -125 93 -192 93v126h125c0 -68 32 -132 94 -192c61 60 93 124 93 192h126v-126c-72 -3 -134 -35 -193 -93c63 -62 124 -93 183 -93h10v-126z" />
    <glyph glyph-name="logicalnot" unicode="&#xac;" horiz-adv-x="711" 
d="M173 427c-86 0 -106 -80 -106 -180v-108c0 -40 3 -72 8 -99c82 55 183 215 183 301c0 45 -35 86 -85 86zM337 -50v264c-55 -84 -193 -181 -305 -264v905h49l-11 -443c31 52 79 78 143 78c49 0 91 -16 124 -52v417h49l-11 -443c33 52 80 78 143 78c87 0 170 -67 170 -157
c0 -128 -175 -248 -351 -383zM479 427c-42 0 -75 -22 -97 -67c0 -61 -10 29 -10 -221c0 -40 3 -72 9 -99c81 55 184 215 184 301c0 45 -37 86 -86 86z" />
    <glyph glyph-name="Ograve" unicode="&#xd2;" horiz-adv-x="381" 
d="M293 314c0 -127 -87 -202 -213 -216l-1 9c71 12 145 80 162 152c-20 -19 -47 -29 -80 -29c-60 0 -94 43 -94 105c0 65 43 136 111 136c70 0 115 -74 115 -157zM184 254c25 0 45 9 60 27c1 10 1 21 1 33c0 90 -23 145 -70 145c-36 0 -62 -51 -62 -106c0 -66 24 -99 71 -99
zM160 520h-144v12c43 0 51 5 51 49v218c0 18 -5 27 -14 27c-6 0 -21 -4 -42 -12v9c22 12 55 29 99 52v-294c0 -43 7 -49 50 -49v-12zM362 520h-144v12c43 0 51 5 51 49v218c0 18 -4 27 -13 27c-7 0 -21 -4 -42 -12v9c22 12 55 29 99 52v-294c0 -43 7 -49 49 -61zM263 60
l-23 -48h-105l-20 -45c91 -12 136 -55 136 -129c0 -78 -55 -131 -133 -131c-31 0 -61 11 -61 30c0 14 11 26 24 26c6 0 54 -35 72 -35c37 0 64 44 64 86c0 66 -47 103 -142 111l56 128h90c8 0 28 -2 35 10z" />
    <glyph glyph-name="Oacute" unicode="&#xd3;" horiz-adv-x="422" 
d="M312 324c0 -127 -87 -202 -213 -216l-1 9c71 12 145 80 162 152c-20 -19 -47 -29 -80 -29c-60 0 -94 43 -94 105c0 65 43 126 111 126c70 0 115 -64 115 -147zM203 264c25 0 45 9 60 27c1 10 1 21 1 33c0 90 -23 135 -70 135c-36 0 -62 -41 -62 -96c0 -66 24 -99 71 -99z
M165 526h-141v15c42 0 49 4 49 45v214c0 18 -4 28 -14 28c-6 0 -19 -5 -40 -13v9c22 12 52 27 97 51v-289c0 -41 7 -45 49 -45v-15zM244 519c-30 0 -46 11 -46 33c0 9 9 15 23 15c7 0 46 -26 72 -26c45 0 69 34 69 76c0 51 -33 78 -90 78c-5 0 -13 0 -19 -1v8
c47 12 89 41 89 85c0 32 -20 52 -55 52c-34 0 -61 -18 -79 -57l-8 3c26 63 54 89 106 89c42 0 75 -29 75 -69c0 -30 -15 -54 -43 -73c39 -13 62 -48 62 -91c0 -74 -62 -122 -156 -122zM307 -76c0 -127 -87 -202 -213 -216l-1 9c71 12 145 80 162 152
c-20 -19 -47 -29 -80 -29c-60 0 -94 43 -94 105c0 65 43 126 111 126c70 0 115 -64 115 -147zM198 -136c25 0 45 9 60 27c1 10 1 21 1 33c0 90 -23 135 -70 135c-36 0 -62 -41 -62 -96c0 -66 24 -99 71 -99z" />
    <glyph glyph-name="Ocircumflex" unicode="&#xd4;" horiz-adv-x="422" 
d="M312 324c0 -127 -87 -202 -213 -216l-1 9c71 12 145 80 162 152c-20 -19 -47 -29 -80 -29c-60 0 -94 43 -94 105c0 65 43 126 111 126c70 0 115 -64 115 -147zM203 264c25 0 45 9 60 27c1 10 1 21 1 33c0 90 -23 135 -70 135c-36 0 -62 -41 -62 -96c0 -66 24 -99 71 -99z
M165 526h-141v15c42 0 49 4 49 45v214c0 18 -4 28 -14 28c-6 0 -19 -5 -40 -13v9c22 12 52 27 97 51v-289c0 -41 7 -45 49 -45v-15zM244 519c-30 0 -46 11 -46 33c0 9 9 15 23 15c7 0 46 -26 72 -26c45 0 69 34 69 76c0 51 -33 78 -90 78c-5 0 -13 0 -19 -1v8
c47 12 89 41 89 85c0 32 -20 52 -55 52c-34 0 -61 -18 -79 -57l-8 3c26 63 54 89 106 89c42 0 75 -29 75 -69c0 -30 -15 -54 -43 -73c39 -13 62 -48 62 -91c0 -74 -62 -122 -156 -122zM280 60l-23 -48h-105l-20 -45c91 -12 136 -55 136 -129c0 -78 -55 -131 -133 -131
c-31 0 -61 11 -61 30c0 14 11 26 24 26c6 0 54 -35 72 -35c37 0 64 44 64 86c0 66 -47 103 -142 111l56 128h90c8 0 28 -2 35 10z" />
    <glyph glyph-name="ae" unicode="&#xe6;" horiz-adv-x="1233" 
d="M394 67v-27c-29 -32 -57 -48 -84 -48c-36 0 -54 21 -54 66c-57 -45 -104 -68 -141 -68c-50 0 -84 49 -84 96c0 80 53 122 221 175v54c0 50 -23 76 -67 76c-31 0 -63 -17 -63 -45c0 -8 4 -27 4 -35c0 -21 -20 -39 -41 -39c-25 0 -36 13 -36 39c0 57 80 101 149 101
c82 0 130 -46 130 -128v-203c0 -24 6 -36 19 -36c11 0 26 7 47 22zM252 81v155c-53 -17 -85 -29 -95 -36c-32 -18 -47 -46 -47 -83c0 -39 20 -72 59 -72c24 0 51 12 83 36zM816 35l-129 -46v71c-35 -48 -77 -71 -124 -71c-62 0 -110 41 -110 103v242c0 44 2 46 -60 46v20
h135v-264c0 -68 18 -92 67 -92c42 0 73 17 92 50v245c0 40 1 41 -60 41v20h135v-304c0 -34 10 -46 38 -46c5 0 10 0 16 1v-16zM973 -192c-81 0 -153 38 -153 92c0 29 29 65 86 107c-31 8 -46 24 -46 46c0 29 24 61 73 96c-45 17 -73 68 -73 119c0 82 66 147 149 147
c32 0 131 -34 164 -34c15 0 30 2 45 5v-39h-70c10 -24 14 -48 14 -72c0 -79 -64 -139 -142 -139c-17 0 -38 2 -63 6c-28 -19 -42 -36 -42 -51c0 -17 26 -25 76 -25c75 -1 122 -4 142 -9c51 -13 76 -41 76 -85c0 -100 -117 -164 -236 -164zM1092 246c0 68 -42 142 -94 142
c-43 0 -65 -38 -65 -86c0 -69 42 -142 94 -142c43 0 65 38 65 86zM1180 -52c0 10 -3 19 -9 27c-15 20 -168 15 -247 27c-27 -24 -41 -49 -41 -75c0 -44 39 -65 117 -65c104 0 180 33 180 86z" />
    <glyph glyph-name="ccedilla" unicode="&#xe7;" horiz-adv-x="1233" 
d="M394 67v-27c-29 -32 -57 -48 -84 -48c-36 0 -54 21 -54 66c-57 -45 -104 -68 -141 -68c-50 0 -84 49 -84 96c0 80 53 122 221 175v54c0 50 -23 76 -67 76c-31 0 -63 -17 -63 -45c0 -8 4 -27 4 -35c0 -21 -20 -39 -41 -39c-25 0 -36 13 -36 39c0 57 80 101 149 101
c82 0 130 -46 130 -128v-203c0 -24 6 -36 19 -36c11 0 26 7 47 22zM252 81v155c-53 -17 -85 -29 -95 -36c-32 -18 -47 -46 -47 -83c0 -39 20 -72 59 -72c24 0 51 12 83 36zM816 35l-129 -46v71c-35 -48 -77 -71 -124 -71c-62 0 -110 41 -110 103v242c0 44 2 46 -60 46v20
h135v-264c0 -68 18 -92 67 -92c42 0 73 17 92 50v245c0 40 1 41 -60 41v20h135v-304c0 -34 10 -46 38 -46c5 0 10 0 16 1v-16zM973 -192c-81 0 -153 38 -153 92c0 29 29 65 86 107c-31 8 -46 24 -46 46c0 29 24 61 73 96c-45 17 -73 68 -73 119c0 82 66 147 149 147
c32 0 131 -34 164 -34c15 0 30 2 45 5v-39h-70c10 -24 14 -48 14 -72c0 -79 -64 -139 -142 -139c-17 0 -38 2 -63 6c-28 -19 -42 -36 -42 -51c0 -17 26 -25 76 -25c75 -1 122 -4 142 -9c51 -13 76 -41 76 -85c0 -100 -117 -164 -236 -164zM1092 246c0 68 -42 142 -94 142
c-43 0 -65 -38 -65 -86c0 -69 42 -142 94 -142c43 0 65 38 65 86zM1180 -52c0 10 -3 19 -9 27c-15 20 -168 15 -247 27c-27 -24 -41 -49 -41 -75c0 -44 39 -65 117 -65c104 0 180 33 180 86z" />
    <glyph glyph-name="Ugrave" unicode="&#xd9;" horiz-adv-x="484" 
d="M470 137l-59 -135h-378v14l187 205c75 82 112 158 112 229c0 79 -50 140 -128 140c-68 0 -117 -45 -149 -134l-17 5c23 117 93 205 205 205c98 0 171 -87 171 -185c0 -73 -33 -141 -96 -207l-190 -196h235c39 0 70 22 93 67z" />
    <glyph glyph-name="Uacute" unicode="&#xda;" horiz-adv-x="476" 
d="M120 5c-58 0 -87 21 -87 65c0 18 15 28 45 28c11 0 85 -54 137 -54c83 0 129 66 129 149c0 96 -63 147 -170 147c-12 0 -25 0 -37 -2v14c89 23 170 77 170 163c0 60 -40 101 -103 101c-66 0 -116 -38 -154 -112l-14 5c49 123 103 171 201 171c83 0 143 -53 143 -132
c0 -56 -28 -102 -84 -137c74 -26 121 -95 121 -173c0 -143 -118 -233 -297 -233z" />
    <glyph glyph-name="Ucircumflex" unicode="&#xdb;" horiz-adv-x="507" 
d="M463 162h-92v-163h-79v163h-280v67l297 431h62v-431h92v-67zM292 576l-235 -347h235v347z" />
    <glyph glyph-name="Udieresis" unicode="&#xdc;" horiz-adv-x="454" 
d="M431 687l-44 -93h-202l-39 -86c175 -24 263 -108 263 -250c0 -149 -106 -252 -258 -252c-61 0 -117 23 -117 59c0 27 21 48 47 48c9 0 104 -67 138 -67c71 0 123 86 123 165c0 129 -91 200 -275 215l110 247h173c38 0 60 8 67 25z" />
    <glyph glyph-name="Yacute" unicode="&#xdd;" horiz-adv-x="476" 
d="M437 678l2 -14c-179 -44 -261 -122 -294 -275c44 30 87 45 132 45c112 0 179 -89 179 -201c0 -131 -85 -233 -201 -233c-139 0 -224 123 -224 275c0 117 37 214 114 291c73 73 114 88 292 112zM367 196c0 128 -44 191 -132 191c-41 0 -76 -16 -104 -45
c-7 -27 -11 -58 -11 -93c0 -131 49 -215 143 -215c69 0 104 54 104 162z" />
    <glyph glyph-name="Thorn" unicode="&#xde;" horiz-adv-x="454" 
d="M432 664l-215 -661h-59l188 583h-199c-55 0 -94 -30 -121 -87l-16 11l58 154h364z" />
    <glyph glyph-name="germandbls" unicode="&#xdf;" horiz-adv-x="482" 
d="M442 409c0 -238 -164 -378 -398 -404l-3 17c133 23 272 150 303 283c-38 -35 -87 -53 -149 -53c-112 0 -176 80 -176 196c0 122 81 235 207 235c130 0 216 -119 216 -274zM237 297c47 0 84 16 112 50c2 18 3 39 3 62c0 168 -43 252 -131 252c-68 0 -115 -77 -115 -180
c0 -123 43 -184 131 -184z" />
    <glyph glyph-name="onesuperior" unicode="&#xb9;" horiz-adv-x="378" 
d="M320 3h-269v23c80 0 95 9 95 92v406c0 34 -8 50 -25 50c-13 0 -39 -7 -79 -22v17c41 22 103 54 185 98v-549c0 -81 13 -92 93 -92v-23z" />
    <glyph glyph-name="threequarters" unicode="&#xbe;" horiz-adv-x="1016" 
d="M550 2h-178v14c52 0 58 9 58 62v270l-166 -346h-10l-156 346v-286c0 -37 17 -46 54 -46v-14h-140v14c51 0 58 11 58 62v284c0 29 -19 44 -58 44v14h122l146 -318l150 318h120v-14c-48 -3 -56 -14 -56 -62v-266c0 -51 5 -62 56 -62v-14zM1003 0h-160v14c28 0 42 8 42 24
c0 18 -16 61 -33 97h-166c-17 -36 -36 -80 -36 -97c0 -16 15 -24 43 -24v-14h-127v14c25 2 44 15 56 43l156 371h17l146 -351c23 -58 32 -62 62 -63v-14zM769 330l-70 -165h144z" />
    <glyph glyph-name="questiondown" unicode="&#xbf;" horiz-adv-x="782" 
d="M550 0h-178v14c52 0 58 9 58 62v270l-166 -346h-10l-156 346v-286c0 -37 17 -46 54 -46v-14h-140v14c51 0 58 11 58 62v284c0 29 -19 44 -58 44v14h122l146 -318l150 318h120v-14c-48 -3 -56 -14 -56 -62v-266c0 -53 4 -62 56 -62v-14zM770 0h-177v14c52 0 57 10 57 61
v265c0 51 -5 62 -57 62v14h177v-14c-52 0 -56 -11 -56 -62v-265c0 -51 4 -61 56 -61v-14z" />
    <glyph glyph-name="zcaron" unicode="&#x17e;" horiz-adv-x="1620" 
d="M216 -10c-113 0 -208 106 -208 218s95 216 208 216c115 0 208 -104 208 -216s-93 -218 -208 -218zM216 398c-82 0 -138 -82 -138 -190c0 -107 54 -192 138 -192c87 0 140 85 140 192s-55 190 -140 190zM972 -2h-176v14c52 0 58 9 58 62v270l-166 -346h-10l-158 346v-286
c0 -37 16 -46 56 -46v-14h-140v14c51 0 56 11 56 62v284c0 29 -19 44 -56 44v14h122l146 -318l150 318h118v-14c-48 -3 -54 -14 -54 -62v-266c0 -51 6 -62 54 -62v-14zM1190 -2h-176v14c48 0 56 9 56 62v266c0 51 -8 62 -56 62v14h176v-14c-51 0 -56 -11 -56 -62v-266
c0 -59 2 -46 56 -76zM1596 304h-14c-5 40 -27 82 -62 82h-74v-312c0 -51 5 -62 56 -62v-14h-176v14c51 0 56 11 56 62v312h-72c-35 0 -57 -42 -62 -82h-14v112h362v-112z" />
    <glyph glyph-name="Ydieresis" unicode="&#x178;" horiz-adv-x="1336" 
d="M1066 2h-176v14c52 0 54 9 54 62v266c0 53 -2 62 -54 62v14h200c137 0 220 -93 220 -210c0 -140 -105 -208 -244 -208zM880 212c0 -135 -95 -210 -244 -210h-178v14c55 0 56 9 56 62v266c0 53 -1 62 -56 62v14h202c126 0 220 -85 220 -208zM10 16c25 3 43 17 54 42
l158 370h18l144 -350c21 -53 30 -60 60 -62v-14h-158v14c27 0 40 8 40 24c0 8 -10 41 -30 98h-166c-23 -56 -34 -89 -34 -98c0 -16 13 -24 40 -24v-14h-126v14zM1060 396c-49 0 -50 -5 -50 -58v-252c0 -54 4 -58 58 -58c115 0 176 65 176 180c0 117 -67 188 -184 188z
M630 396c-49 0 -50 -5 -50 -58v-252c0 -54 4 -58 58 -58c115 0 176 65 176 180c0 117 -67 188 -184 188zM214 330l-72 -164h142z" />
    <glyph glyph-name="exclamdown" unicode="&#xa1;" horiz-adv-x="1009" 
d="M877 35c0 23 19 43 42 43c24 0 44 -20 44 -43c0 -24 -20 -43 -44 -43c-23 0 -42 19 -42 43zM385 67v-27c-29 -31 -57 -48 -85 -48c-35 0 -53 22 -54 66c-56 -45 -103 -67 -140 -67c-51 0 -85 48 -85 96c0 80 53 121 222 175v54c0 50 -23 75 -67 75c-31 0 -63 -16 -63 -45
c0 -7 4 -27 4 -34c0 -22 -20 -40 -42 -40c-24 0 -36 14 -36 40c0 57 80 101 150 101c82 0 129 -46 129 -128v-203c0 -25 7 -36 20 -36c11 0 26 7 47 21zM243 82v154c-53 -17 -85 -28 -96 -36c-31 -18 -47 -46 -47 -82c0 -39 21 -72 60 -72c24 0 51 11 83 36zM614 1h-216v16
c62 0 71 17 71 79v418c0 40 -1 43 -71 43v16l146 41v-511c0 -77 11 -86 70 -86v-16zM845 65c-36 -48 -76 -73 -119 -73c-53 0 -70 27 -70 115v266h-51v11c46 35 88 81 126 139v-119h96v-31h-96v-266c0 -43 14 -63 40 -63c21 0 40 11 61 34z" />
    <glyph glyph-name="cent" unicode="&#xa2;" horiz-adv-x="1323" 
d="M10 15c25 3 43 17 54 42l158 370h18l144 -350c21 -53 30 -60 60 -62v-14h-158v14c27 0 40 8 40 24c0 8 -10 41 -30 98h-166c-23 -56 -34 -89 -34 -98c0 -16 13 -24 40 -24v-14h-126v14zM214 329l-72 -164h142zM833 107l-28 -108h-344v14c39 0 57 10 57 46v284
c0 52 -4 63 -57 63v13h179v-13c-53 0 -58 -11 -58 -63v-292c0 -17 5 -23 23 -23h116c46 0 80 33 93 79h19zM1197 307h-15c-6 42 -28 82 -61 82h-74v-313c0 -51 3 -62 55 -62v-14h-175v14c52 0 56 11 56 62v313h-74c-32 0 -55 -40 -60 -82h-15v111h363v-111zM1207 29
c0 23 19 43 42 43c24 0 44 -20 44 -43c0 -24 -20 -43 -44 -43c-23 0 -42 19 -42 43z" />
    <glyph glyph-name="currency" unicode="&#xa4;" horiz-adv-x="1323" 
d="M10 15c25 3 43 17 54 42l158 370h18l144 -350c21 -53 30 -60 60 -62v-14h-158v14c27 0 40 8 40 24c0 8 -10 41 -30 98h-166c-23 -56 -34 -89 -34 -98c0 -16 13 -24 40 -24v-14h-126v14zM214 329l-72 -164h142zM833 107l-28 -108h-344v14c39 0 57 10 57 46v284
c0 52 -4 63 -57 63v13h179v-13c-53 0 -58 -11 -58 -63v-292c0 -17 5 -23 23 -23h116c46 0 80 33 93 79h19zM1197 307h-15c-6 42 -28 82 -61 82h-74v-313c0 -51 3 -62 55 -62v-14h-175v14c52 0 56 11 56 62v313h-74c-32 0 -55 -40 -60 -82h-15v111h363v-111zM1207 29
c0 23 19 43 42 43c24 0 44 -20 44 -43c0 -24 -20 -43 -44 -43c-23 0 -42 19 -42 43z" />
    <glyph glyph-name="yen" unicode="&#xa5;" horiz-adv-x="1278" 
d="M550 2h-178v14c52 0 58 9 58 62v270l-166 -346h-10l-156 346v-286c0 -37 17 -46 54 -46v-14h-140v14c51 0 58 11 58 62v284c0 29 -19 44 -58 44v14h122l146 -318l150 318h120v-14c-48 -3 -56 -14 -56 -62v-266c0 -51 5 -62 56 -62v-14zM1256 406c-54 0 -58 -11 -58 -63
v-197c0 -97 -38 -159 -107 -159c-40 0 -73 19 -73 46c0 18 15 36 32 36c10 0 19 -6 27 -16c0 0 1 -38 21 -38c23 0 34 20 34 61v267c0 52 -4 63 -58 63v14h182v-14zM1003 0h-160v14c28 0 42 8 42 24c0 18 -16 61 -33 97h-166c-17 -36 -36 -80 -36 -97c0 -16 15 -24 43 -24
v-14h-127v14c25 2 44 15 56 43l156 371h17l146 -351c23 -58 32 -62 62 -63v-14zM769 330l-70 -165h144z" />
    <glyph glyph-name="brokenbar" unicode="&#xa6;" horiz-adv-x="1276" 
d="M550 0h-178v14c52 0 58 9 58 62v270l-166 -346h-10l-156 346v-286c0 -37 17 -46 54 -46v-14h-140v14c51 0 58 11 58 62v284c0 29 -19 44 -58 44v14h122l146 -318l150 318h120v-14c-48 -3 -56 -14 -56 -62v-266c0 -53 4 -62 56 -62v-14zM1255 408c-52 0 -56 -12 -56 -62
v-354h-17l-287 350v-281c0 -38 16 -47 57 -47v-14h-142v14c52 0 57 12 57 63v288c0 29 -19 43 -57 43v14h107l253 -315v254c0 39 -16 47 -57 47v14h142v-14zM770 0h-177v14c52 0 57 10 57 61v265c0 51 -5 62 -57 62v14h177v-14c-52 0 -56 -11 -56 -62v-265
c0 -51 4 -61 56 -61v-14z" />
    <glyph glyph-name="uni00AD" unicode="&#xad;" horiz-adv-x="1278" 
d="M550 2h-178v14c52 0 58 9 58 62v270l-166 -346h-10l-156 346v-286c0 -37 17 -46 54 -46v-14h-140v14c51 0 58 11 58 62v284c0 29 -19 44 -58 44v14h122l146 -318l150 318h120v-14c-48 -3 -56 -14 -56 -62v-266c0 -51 5 -62 56 -62v-14zM1256 406c-54 0 -58 -11 -58 -63
v-197c0 -97 -38 -159 -107 -159c-40 0 -73 19 -73 46c0 18 15 36 32 36c10 0 19 -6 27 -16c0 0 1 -38 21 -38c23 0 34 20 34 61v267c0 52 -4 63 -58 63v14h182v-14zM1003 0h-160v14c28 0 42 8 42 24c0 18 -16 61 -33 97h-166c-17 -36 -36 -80 -36 -97c0 -16 15 -24 43 -24
v-14h-127v14c25 2 44 15 56 43l156 371h17l146 -351c23 -58 32 -62 62 -63v-14zM769 330l-70 -165h144z" />
    <glyph glyph-name="registered" unicode="&#xae;" horiz-adv-x="1276" 
d="M550 0h-178v14c52 0 58 9 58 62v270l-166 -346h-10l-156 346v-286c0 -37 17 -46 54 -46v-14h-140v14c51 0 58 11 58 62v284c0 29 -19 44 -58 44v14h122l146 -318l150 318h120v-14c-48 -3 -56 -14 -56 -62v-266c0 -53 4 -62 56 -62v-14zM1255 408c-52 0 -56 -12 -56 -62
v-354h-17l-287 350v-281c0 -38 16 -47 57 -47v-14h-142v14c52 0 57 12 57 63v288c0 29 -19 43 -57 43v14h107l253 -315v254c0 39 -16 47 -57 47v14h142v-14zM770 0h-177v14c52 0 57 10 57 61v265c0 51 -5 62 -57 62v14h177v-14c-52 0 -56 -11 -56 -62v-265
c0 -51 4 -61 56 -61v-14z" />
    <glyph glyph-name="threesuperior" unicode="&#xb3;" horiz-adv-x="564" 
d="M547 -1h-173v14c52 0 56 10 56 60v266l-162 -340h-10l-155 340v-282c0 -32 12 -44 55 -44v-14h-138v14c51 0 56 11 56 60v279c0 28 -19 42 -56 42v14h120l143 -310l147 310h117v-14c-48 -1 -54 -13 -54 -60v-261c0 -50 3 -60 54 -60v-14z" />
    <glyph glyph-name="acute" unicode="&#xb4;" horiz-adv-x="1238" 
d="M206 2h-176v14c52 0 54 9 54 62v266c0 53 -2 62 -54 62v14h200c137 0 220 -93 220 -210c0 -140 -105 -208 -244 -208zM200 396c-49 0 -50 -5 -50 -58v-252c0 -54 4 -58 58 -58c115 0 176 65 176 180c0 117 -67 188 -184 188zM1213 0h-178v14c52 0 58 9 58 62v270
l-166 -346h-10l-156 346v-286c0 -37 17 -46 54 -46v-14h-140v14c51 0 58 11 58 62v284c0 29 -19 44 -58 44v14h122l146 -318l150 318h120v-14c-48 -3 -56 -14 -56 -62v-266c0 -53 4 -62 56 -62v-14zM640 0h-177v14c52 0 57 10 57 61v265c0 51 -5 62 -57 62v14h177v-14
c-52 0 -56 -11 -56 -62v-265c0 -51 4 -61 56 -61v-14z" />
    <glyph glyph-name="paragraph" unicode="&#xb6;" horiz-adv-x="1238" 
d="M206 2h-176v14c52 0 54 9 54 62v266c0 53 -2 62 -54 62v14h200c137 0 220 -93 220 -210c0 -140 -105 -208 -244 -208zM200 396c-49 0 -50 -5 -50 -58v-252c0 -54 4 -58 58 -58c115 0 176 65 176 180c0 117 -67 188 -184 188zM1213 0h-178v14c52 0 58 9 58 62v270
l-166 -346h-10l-156 346v-286c0 -37 17 -46 54 -46v-14h-140v14c51 0 58 11 58 62v284c0 29 -19 44 -58 44v14h122l146 -318l150 318h120v-14c-48 -3 -56 -14 -56 -62v-266c0 -53 4 -62 56 -62v-14zM640 0h-177v14c52 0 57 10 57 61v265c0 51 -5 62 -57 62v14h177v-14
c-52 0 -56 -11 -56 -62v-265c0 -51 4 -61 56 -61v-14z" />
    <glyph glyph-name="periodcentered" unicode="&#xb7;" horiz-adv-x="1103" 
d="M302 304h-17c-20 77 -60 115 -116 115c-40 0 -70 -23 -70 -62c0 -63 89 -88 158 -131c37 -24 55 -62 55 -100c0 -72 -64 -118 -136 -118c-18 0 -80 20 -98 20c-14 0 -22 -6 -22 -16v-4h-13l-19 137h17c28 -75 72 -112 130 -112c44 0 79 27 79 70c0 71 -85 94 -152 136
c-36 22 -54 59 -54 96c0 66 57 114 122 114c18 0 74 -22 91 -22c11 0 18 7 20 20h13zM769 429c-51 0 -55 -11 -55 -62v-185c0 -106 -61 -164 -167 -164c-103 0 -157 55 -157 157v192c0 51 -4 62 -56 62v14h177v-14c-53 0 -56 -11 -56 -62v-215c0 -67 40 -107 107 -107
c82 0 123 46 123 140v182c0 58 -10 62 -56 62v14h140v-14zM1062 304h-17c-20 77 -60 115 -116 115c-40 0 -70 -23 -70 -62c0 -63 89 -88 158 -131c37 -24 55 -62 55 -100c0 -72 -64 -118 -136 -118c-18 0 -80 20 -98 20c-14 0 -22 -6 -22 -16v-4h-13l-19 137h17
c28 -75 72 -112 130 -112c44 0 79 27 79 70c0 71 -85 94 -152 136c-36 22 -54 59 -54 96c0 66 57 114 122 114c18 0 74 -22 91 -22c11 0 18 7 20 20h13z" />
    <glyph glyph-name="cedilla" unicode="&#xb8;" horiz-adv-x="1103" 
d="M316 114c0 -77 -64 -123 -143 -123c-18 0 -78 21 -96 21c-12 0 -18 -5 -19 -13h-17v146h17c0 -66 51 -129 119 -129c42 0 76 23 76 63c0 90 -212 116 -212 230c0 68 66 115 132 115c20 0 75 -23 88 -23c9 0 13 4 13 11v2h16v-128h-16c0 12 -4 28 -13 47
c-22 50 -49 67 -91 67c-40 0 -69 -22 -69 -62c0 -26 17 -49 54 -70c80 -47 161 -78 161 -154zM1075 115c0 -77 -64 -123 -143 -123c-18 0 -78 21 -96 21c-12 0 -18 -5 -19 -13h-17v146h17c0 -66 51 -129 119 -129c42 0 76 23 76 63c0 90 -212 116 -212 230
c0 68 66 115 132 115c20 0 75 -23 88 -23c9 0 13 4 13 11v2h16v-128h-16c0 12 -4 28 -13 47c-22 50 -49 67 -91 67c-40 0 -69 -22 -69 -62c0 -26 17 -49 54 -70c80 -47 161 -78 161 -154zM762 38l-132 -47v72c-36 -48 -79 -72 -128 -72c-63 0 -112 42 -112 105v247
c0 45 2 48 -61 48v20h138v-270c0 -69 18 -94 69 -94c43 0 74 17 94 51v250c0 41 0 43 -61 43v20h138v-311c0 -35 10 -47 39 -47c4 0 10 0 16 1v-16z" />
    <glyph glyph-name="Otilde" unicode="&#xd5;" horiz-adv-x="1348" 
d="M10 15c25 3 43 17 54 42l158 370h18l144 -350c21 -53 30 -60 60 -62v-14h-158v14c27 0 40 8 40 24c0 8 -10 41 -30 98h-166c-23 -56 -34 -89 -34 -98c0 -16 13 -24 40 -24v-14h-126v14zM214 329l-72 -164h142zM865 413c-53 0 -57 -12 -57 -64v-192
c0 -109 -63 -170 -172 -170c-106 0 -162 57 -162 162v200c0 53 -4 64 -58 64v14h182v-14c-53 0 -57 -11 -57 -64v-223c0 -70 41 -111 111 -111c83 0 126 48 126 144v190c0 59 -10 64 -57 64v14h144v-14zM1263 431l10 -136h-10c-26 76 -72 114 -141 114
c-98 0 -159 -81 -159 -194c0 -117 68 -209 163 -209c31 0 60 8 88 23v124c0 49 -6 62 -56 62v12h165v-12c-44 0 -48 -17 -48 -62v-130c-46 -25 -95 -38 -149 -38c-133 0 -235 82 -235 215c0 124 93 231 225 231c26 0 58 -8 96 -21c13 -5 20 -6 24 -6c9 0 14 9 15 27h12z" />
    <glyph glyph-name="Odieresis" unicode="&#xd6;" horiz-adv-x="1348" 
d="M10 15c25 3 43 17 54 42l158 370h18l144 -350c21 -53 30 -60 60 -62v-14h-158v14c27 0 40 8 40 24c0 8 -10 41 -30 98h-166c-23 -56 -34 -89 -34 -98c0 -16 13 -24 40 -24v-14h-126v14zM214 329l-72 -164h142zM865 413c-53 0 -57 -12 -57 -64v-192
c0 -109 -63 -170 -172 -170c-106 0 -162 57 -162 162v200c0 53 -4 64 -58 64v14h182v-14c-53 0 -57 -11 -57 -64v-223c0 -70 41 -111 111 -111c83 0 126 48 126 144v190c0 59 -10 64 -57 64v14h144v-14zM1263 431l10 -136h-10c-26 76 -72 114 -141 114
c-98 0 -159 -81 -159 -194c0 -117 68 -209 163 -209c31 0 60 8 88 23v124c0 49 -6 62 -56 62v12h165v-12c-44 0 -48 -17 -48 -62v-130c-46 -25 -95 -38 -149 -38c-133 0 -235 82 -235 215c0 124 93 231 225 231c26 0 58 -8 96 -21c13 -5 20 -6 24 -6c9 0 14 9 15 27h12z" />
    <glyph glyph-name="macron" unicode="&#xaf;" horiz-adv-x="1278" 
d="M550 2h-178v14c52 0 58 9 58 62v270l-166 -346h-10l-156 346v-286c0 -37 17 -46 54 -46v-14h-140v14c51 0 58 11 58 62v284c0 29 -19 44 -58 44v14h122l146 -318l150 318h120v-14c-48 -3 -56 -14 -56 -62v-266c0 -51 5 -62 56 -62v-14zM1256 406c-54 0 -58 -11 -58 -63
v-197c0 -97 -38 -159 -107 -159c-40 0 -73 19 -73 46c0 18 15 36 32 36c10 0 19 -6 27 -16c0 0 1 -38 21 -38c23 0 34 20 34 61v267c0 52 -4 63 -58 63v14h182v-14zM1003 0h-160v14c28 0 42 8 42 24c0 18 -16 61 -33 97h-166c-17 -36 -36 -80 -36 -97c0 -16 15 -24 43 -24
v-14h-127v14c25 2 44 15 56 43l156 371h17l146 -351c23 -58 32 -62 62 -63v-14zM769 330l-70 -165h144z" />
  </font>
</defs>
</svg>
