<?xml version="1.0" standalone="no"?>
<!DOCTYPE svg PUBLIC "-//W3C//DTD SVG 20010904//EN"
 "http://www.w3.org/TR/2001/REC-SVG-20010904/DTD/svg10.dtd">
<svg version="1.0" xmlns="http://www.w3.org/2000/svg"
 width="626.000000pt" height="626.000000pt" viewBox="0 0 626.000000 626.000000"
 preserveAspectRatio="xMidYMid meet">
<metadata>
Created by potrace 1.13, written by Peter Selinger 2001-2015
</metadata>
<g transform="translate(0.000000,626.000000) scale(0.100000,-0.100000)"
fill="#000000" stroke="none">
<path d="M481 5308 c-125 -36 -126 -115 -2 -230 36 -33 77 -68 91 -77 14 -9
124 -95 245 -191 121 -97 294 -234 384 -305 90 -72 243 -193 340 -270 97 -77
236 -187 310 -245 73 -58 173 -136 221 -175 48 -38 166 -132 261 -207 96 -76
230 -183 299 -238 139 -111 253 -174 345 -191 34 -6 118 -9 195 -6 109 3 147
9 195 27 94 36 114 51 575 418 85 68 165 131 177 140 56 43 346 273 533 422
114 91 222 176 240 190 18 14 81 63 140 110 105 84 182 145 494 392 239 188
294 235 323 279 49 74 25 130 -67 158 -49 14 -5248 14 -5299 -1z"/>
<path d="M104 4646 c-40 -18 -69 -55 -89 -115 -14 -42 -15 -214 -13 -1656 l3
-1610 28 -67 c32 -75 120 -174 184 -207 108 -55 -94 -51 2914 -51 2713 0 2768
0 2830 19 120 38 224 133 271 249 l23 57 3 1612 2 1612 -21 55 c-28 76 -73
111 -144 111 -84 0 -83 0 -570 -370 -71 -55 -186 -142 -255 -194 -69 -52 -196
-149 -283 -216 -87 -66 -168 -127 -180 -135 -12 -8 -62 -46 -112 -85 -49 -39
-100 -77 -112 -85 -12 -8 -68 -51 -125 -94 -57 -44 -177 -136 -268 -205 -91
-68 -201 -152 -245 -186 -335 -256 -501 -378 -553 -406 -150 -78 -374 -78
-523 0 -33 17 -114 73 -180 124 -66 50 -133 101 -149 112 -16 11 -80 59 -142
107 -383 293 -689 525 -722 548 -11 8 -66 49 -121 92 -55 42 -111 85 -125 96
-74 55 -341 258 -445 337 -66 50 -187 143 -270 205 -82 63 -206 156 -275 209
-68 52 -146 105 -172 119 -58 30 -122 37 -164 18z"/>
</g>
</svg>
