<?xml version="1.0" standalone="no"?>
<!DOCTYPE svg PUBLIC "-//W3C//DTD SVG 20010904//EN"
 "http://www.w3.org/TR/2001/REC-SVG-20010904/DTD/svg10.dtd">
<svg version="1.0" xmlns="http://www.w3.org/2000/svg"
 width="1200.000000pt" height="1200.000000pt" viewBox="0 0 1200.000000 1200.000000"
 preserveAspectRatio="xMidYMid meet">
<metadata>
Created by potrace 1.13, written by Peter Selinger 2001-2015
</metadata>
<g transform="translate(0.000000,1200.000000) scale(0.100000,-0.100000)"
fill="#000000" stroke="none">
<path d="M5198 11885 c-2 -3 -99 -7 -214 -10 -116 -2 -226 -7 -245 -9 -19 -3
-70 -8 -114 -11 -44 -3 -93 -7 -110 -9 -66 -7 -151 -17 -175 -21 -34 -6 -230
-36 -255 -40 -11 -2 -31 -6 -45 -10 -14 -3 -47 -10 -75 -15 -83 -16 -116 -24
-195 -44 -8 -3 -35 -9 -60 -15 -25 -7 -53 -14 -62 -16 -10 -3 -26 -7 -35 -9
-10 -3 -34 -10 -53 -16 -19 -6 -44 -13 -56 -15 -11 -3 -61 -19 -110 -35 -49
-17 -96 -32 -104 -35 -8 -2 -16 -4 -17 -5 -2 -2 -6 -3 -10 -4 -72 -17 -472
-182 -485 -201 -4 -5 -8 -6 -8 0 0 5 -5 4 -12 -3 -7 -7 -19 -12 -27 -12 -8 0
-22 -7 -32 -16 -9 -8 -23 -16 -31 -18 -11 -1 -153 -75 -300 -156 -107 -59
-411 -257 -416 -271 -2 -5 -10 -9 -18 -9 -8 0 -14 -4 -14 -10 0 -5 -5 -10 -11
-10 -6 0 -17 -6 -24 -12 -19 -17 -29 -25 -102 -81 -34 -26 -68 -53 -75 -60 -7
-6 -43 -37 -78 -67 -152 -129 -370 -346 -470 -470 -19 -24 -41 -49 -48 -57
-40 -40 -212 -270 -278 -373 -27 -41 -52 -76 -56 -78 -5 -2 -8 -7 -8 -12 0 -8
-59 -109 -70 -120 -5 -5 -19 -31 -87 -155 -37 -68 -129 -256 -162 -330 -13
-27 -28 -63 -36 -80 -27 -62 -85 -209 -85 -218 0 -5 -6 -23 -14 -40 -23 -53
-79 -224 -102 -309 -1 -5 -2 -9 -4 -10 -1 -2 -3 -10 -5 -18 -2 -8 -11 -40 -19
-70 -18 -61 -87 -364 -91 -395 -1 -11 -5 -33 -8 -50 -4 -16 -9 -46 -11 -65 -3
-19 -7 -44 -9 -55 -3 -11 -8 -42 -11 -70 -4 -27 -11 -84 -16 -125 -28 -220
-34 -346 -34 -685 1 -282 5 -397 19 -525 3 -25 7 -70 10 -100 2 -30 5 -55 5
-55 3 0 7 -31 14 -90 13 -110 14 -119 30 -201 2 -12 7 -39 10 -60 4 -22 8 -46
11 -54 2 -8 6 -31 9 -50 3 -19 15 -75 26 -125 23 -101 23 -103 41 -165 6 -25
13 -52 14 -60 4 -29 36 -146 57 -204 11 -32 21 -63 22 -70 1 -6 5 -17 9 -23 5
-7 6 -13 3 -13 -3 0 2 -19 10 -42 9 -24 32 -88 51 -143 19 -55 40 -113 48
-130 7 -16 23 -57 36 -90 12 -33 35 -88 51 -123 15 -34 28 -65 28 -69 0 -7
202 -414 233 -468 71 -127 91 -161 97 -165 3 -3 12 -18 20 -34 29 -56 35 -66
42 -66 5 0 8 -4 8 -10 0 -8 96 -160 118 -185 5 -6 17 -24 28 -40 30 -49 98
-140 107 -143 4 -2 7 -8 7 -13 0 -7 179 -236 215 -275 5 -6 33 -37 60 -69 153
-176 352 -375 631 -632 17 -15 60 -53 95 -83 35 -30 82 -71 104 -90 22 -20 65
-56 95 -80 30 -25 57 -47 60 -50 23 -24 111 -90 119 -90 6 0 11 -4 11 -8 0 -5
36 -35 81 -68 45 -32 86 -64 93 -70 6 -5 63 -47 126 -92 63 -45 120 -86 127
-92 7 -5 16 -10 22 -10 5 0 11 -3 13 -7 2 -5 55 -42 118 -83 63 -41 117 -78
120 -81 3 -3 10 -8 15 -10 17 -7 210 -123 215 -130 3 -3 41 -25 85 -49 44 -23
85 -46 90 -51 37 -28 513 -268 655 -329 41 -18 93 -40 115 -50 22 -10 94 -39
160 -65 119 -46 143 -56 188 -75 32 -14 336 -114 437 -144 136 -41 370 -102
425 -112 17 -2 46 -9 66 -14 20 -6 60 -15 90 -21 52 -10 64 -12 139 -25 51 -9
77 -13 108 -19 15 -3 45 -8 67 -11 22 -3 51 -8 65 -10 14 -3 45 -7 70 -9 25
-3 61 -7 80 -11 19 -3 55 -7 80 -9 25 -2 68 -6 95 -9 125 -14 270 -19 515 -19
276 -1 474 9 615 28 22 3 65 8 95 11 30 2 64 6 75 8 11 3 46 7 78 11 31 4 57
10 57 14 0 3 15 6 33 6 37 1 80 8 152 25 28 6 61 13 75 15 14 2 35 7 48 10 12
3 30 7 40 9 9 2 62 16 117 30 55 15 107 28 115 30 38 9 197 59 215 67 11 5 29
11 40 12 11 2 31 8 45 14 14 6 66 25 115 43 50 18 94 37 100 42 5 4 16 8 25 8
8 0 38 11 65 25 28 13 53 25 58 25 12 0 156 71 230 113 176 99 383 280 472
413 22 32 43 61 46 64 3 3 14 21 24 40 10 19 21 37 25 40 8 6 90 193 95 217 2
10 11 38 19 62 21 58 57 230 63 306 8 91 7 355 -1 400 -6 34 -17 82 -31 145
-9 39 -58 197 -76 248 -11 31 -25 71 -29 87 -15 51 -70 206 -81 227 -6 10 -12
27 -14 36 -2 9 -13 42 -25 72 -12 30 -25 66 -30 80 -4 14 -22 61 -38 105 -16
44 -55 150 -87 235 -31 85 -60 164 -65 175 -16 36 -139 411 -144 438 -2 15 -7
31 -11 37 -3 5 -8 20 -10 31 -2 12 -13 58 -24 103 -11 44 -23 95 -26 111 -2
17 -7 41 -10 55 -3 14 -7 52 -9 85 -2 33 -5 65 -6 70 -1 6 -2 12 -1 15 1 3 4
41 6 85 2 44 6 96 10 115 3 19 8 48 11 63 8 50 32 141 44 172 6 17 10 30 8 31
-5 1 47 109 55 112 4 2 7 9 7 16 0 14 56 94 80 114 32 27 93 64 114 68 37 8
141 4 141 -6 0 -1 11 -4 24 -6 14 -2 32 -10 40 -17 9 -7 28 -19 43 -26 15 -8
46 -32 70 -53 24 -22 50 -45 58 -51 12 -10 106 -115 143 -162 39 -48 137 -192
137 -202 0 -6 4 -13 8 -15 9 -4 120 -192 175 -298 54 -104 157 -255 214 -316
87 -92 237 -180 316 -186 15 -1 27 -5 27 -9 0 -3 39 -5 88 -4 125 3 258 53
371 139 75 58 221 232 221 264 0 5 7 15 15 22 8 7 12 16 9 21 -3 5 0 9 7 9 7
0 9 3 6 7 -4 3 -3 11 2 17 9 11 36 117 45 171 2 17 5 30 6 30 1 0 3 14 5 30 2
17 7 45 10 63 3 18 8 57 11 85 3 29 7 63 9 77 12 67 20 248 19 465 0 213 -9
438 -18 454 -2 3 -7 38 -10 77 -4 39 -8 80 -11 91 -2 11 -6 38 -9 59 -7 44
-14 87 -20 124 -2 14 -12 61 -21 105 -9 44 -19 90 -21 103 -9 49 -60 244 -89
342 -9 30 -19 64 -22 75 -2 11 -8 29 -13 40 -7 16 -51 148 -55 165 -2 5 -6 17
-28 75 -7 17 -12 32 -13 35 -1 8 -46 120 -70 175 -7 17 -18 43 -24 59 -24 65
-145 321 -152 324 -4 2 -8 11 -8 21 0 9 -4 21 -9 27 -5 5 -33 56 -64 114 -30
58 -67 125 -81 150 -14 25 -29 52 -33 60 -10 22 -96 164 -102 170 -3 3 -17 26
-31 53 -13 26 -28 47 -32 47 -5 0 -8 4 -8 10 0 8 -136 217 -150 230 -3 3 -9
13 -15 22 -29 49 -101 148 -107 148 -5 0 -8 6 -8 14 0 8 -3 16 -7 18 -10 4
-73 85 -73 93 0 6 -12 22 -41 53 -8 9 -45 55 -81 102 -37 47 -77 97 -90 112
-13 15 -33 40 -45 55 -12 15 -30 37 -40 48 -10 11 -36 41 -57 65 -183 211
-471 497 -701 697 -33 28 -71 61 -85 73 -14 12 -41 34 -60 49 -19 14 -44 34
-55 44 -11 10 -65 53 -120 95 -55 42 -103 81 -107 87 -4 5 -8 6 -8 2 0 -4 -10
2 -22 13 -13 12 -39 31 -58 43 -19 11 -37 24 -40 28 -10 13 -339 229 -350 229
-5 0 -10 5 -10 10 0 6 -4 10 -10 10 -5 0 -36 17 -67 37 -32 21 -76 47 -98 58
-22 12 -51 28 -65 37 -75 49 -570 299 -640 323 -12 4 -48 19 -85 36 -58 25
-246 100 -275 109 -14 5 -63 22 -110 40 -47 17 -121 43 -165 56 -44 14 -87 28
-95 31 -8 4 -19 8 -25 9 -5 1 -12 3 -15 4 -3 1 -12 3 -20 5 -8 2 -78 22 -155
45 -77 22 -151 42 -165 45 -14 2 -51 11 -83 20 -31 8 -61 14 -65 14 -4 -1 -9
0 -12 1 -6 2 -9 3 -110 25 -41 9 -88 19 -105 21 -16 3 -52 9 -80 14 -74 14
-99 18 -214 34 -200 28 -235 32 -346 41 -44 3 -102 8 -130 11 -27 2 -121 6
-208 9 -86 2 -161 6 -166 9 -4 3 -10 3 -13 1z m-1128 -1558 c82 -16 179 -41
202 -53 15 -8 29 -13 30 -12 6 4 148 -65 148 -72 0 -4 11 -11 25 -14 14 -4 25
-11 25 -16 0 -6 5 -10 10 -10 10 0 36 -21 119 -97 25 -23 49 -43 54 -43 4 0 7
-6 7 -14 0 -8 4 -16 8 -18 12 -5 89 -109 117 -159 33 -60 48 -93 74 -166 21
-60 24 -71 37 -138 27 -142 26 -278 -3 -410 -2 -11 -6 -30 -9 -42 -9 -43 -62
-179 -89 -228 -154 -276 -434 -476 -735 -523 -43 -7 -258 -8 -310 -2 -41 5
-172 39 -215 56 -66 27 -110 49 -113 57 -2 4 -9 7 -15 7 -17 0 -147 89 -147
100 0 6 -6 10 -13 10 -10 0 -97 87 -160 161 -23 26 -102 162 -117 199 -7 19
-16 40 -20 45 -6 9 -21 61 -22 75 0 3 -4 12 -8 20 -5 9 -11 35 -15 59 -3 24
-10 53 -14 65 -9 23 -7 274 2 316 3 14 8 41 11 60 13 68 101 289 125 310 3 3
23 30 43 60 97 143 251 265 438 348 41 18 117 42 130 41 3 0 18 4 33 10 16 6
58 14 95 17 37 4 68 8 70 9 4 4 175 -3 202 -8z m3208 -71 c17 -3 47 -9 64 -12
44 -7 166 -48 225 -76 85 -39 211 -129 284 -202 110 -111 221 -295 250 -414 7
-26 16 -53 22 -59 5 -7 7 -13 5 -13 -3 0 1 -33 8 -72 12 -71 12 -276 0 -328
-4 -14 -8 -37 -11 -51 -16 -87 -84 -249 -135 -324 -17 -24 -30 -46 -30 -48 0
-12 -153 -173 -192 -202 -71 -54 -118 -85 -118 -78 0 4 -4 3 -8 -4 -13 -20
-252 -122 -252 -108 0 3 -12 0 -26 -5 -60 -23 -305 -34 -389 -17 -16 3 -43 8
-60 11 -50 8 -188 56 -225 79 -19 12 -37 21 -40 21 -3 -1 -22 10 -42 22 -21
13 -40 24 -44 24 -3 0 -11 6 -19 13 -7 6 -27 23 -45 37 -50 39 -150 139 -150
150 0 6 -4 10 -8 10 -4 0 -16 13 -25 30 -10 16 -23 35 -30 42 -29 30 -135 248
-120 248 3 0 1 6 -4 13 -5 6 -15 39 -22 72 -7 33 -16 74 -20 90 -8 34 -6 258
3 295 3 13 8 42 11 63 4 22 11 51 17 66 5 14 12 35 14 45 8 39 95 216 106 216
4 0 8 5 8 11 0 27 201 249 226 249 7 0 17 6 21 13 15 24 201 130 250 143 10 2
50 13 89 23 39 11 88 22 109 25 21 4 40 8 42 9 5 6 227 -1 261 -7z m-4928
-2651 c14 -3 45 -10 70 -16 52 -11 74 -17 78 -19 1 -2 5 -3 10 -4 21 -4 114
-43 162 -69 120 -65 223 -150 306 -253 21 -27 42 -51 45 -54 3 -3 9 -12 13
-20 11 -25 31 -57 43 -72 19 -22 78 -167 96 -233 44 -168 43 -405 -5 -544 -6
-20 -13 -40 -14 -46 -37 -144 -188 -362 -323 -465 -18 -14 -38 -30 -44 -35
-18 -16 -116 -75 -125 -75 -4 0 -14 -6 -21 -12 -6 -7 -15 -13 -19 -13 -4 -1
-17 -6 -28 -13 -12 -6 -24 -8 -28 -5 -3 3 -6 2 -6 -4 0 -5 -6 -10 -12 -10 -7
-1 -43 -10 -79 -21 -96 -29 -140 -35 -269 -36 -143 -1 -182 4 -315 44 -198 59
-398 203 -518 372 -41 58 -116 187 -115 198 0 3 -7 23 -16 45 -19 45 -31 89
-51 193 -11 52 -13 237 -3 292 5 30 11 69 13 85 2 17 8 44 15 60 6 17 11 30
10 30 -2 0 13 40 31 82 11 23 19 47 19 52 0 6 5 11 11 11 5 0 8 4 5 8 -3 5 10
32 29 61 19 29 35 57 35 62 0 5 4 9 8 9 4 0 15 12 24 28 40 65 192 200 278
248 19 10 37 21 40 24 10 11 149 72 170 76 3 0 25 6 50 14 49 14 72 18 140 27
25 3 46 6 48 8 5 4 217 -4 242 -10z m1574 -2615 c49 -12 124 -37 167 -56 79
-33 191 -99 197 -115 2 -5 8 -9 13 -9 28 0 169 -147 231 -242 114 -171 170
-357 171 -563 1 -88 -12 -204 -24 -227 -5 -10 -7 -18 -5 -18 3 0 -2 -19 -10
-42 -9 -24 -17 -52 -20 -63 -2 -11 -18 -50 -35 -85 -123 -253 -335 -443 -599
-533 -74 -26 -88 -29 -185 -44 -78 -12 -263 -6 -334 11 -36 8 -68 13 -73 10
-4 -3 -8 0 -8 5 0 6 -8 11 -19 11 -39 0 -190 72 -281 134 -168 114 -308 295
-380 494 -16 45 -27 82 -25 82 3 0 1 8 -4 18 -16 30 -26 131 -25 257 1 133 7
179 39 285 1 3 5 18 10 33 4 16 18 51 31 78 13 27 24 52 24 55 0 22 123 188
183 247 70 70 123 117 131 117 2 0 30 17 62 39 59 38 227 111 264 114 11 1 20
6 20 11 0 5 2 7 5 5 2 -3 37 0 77 7 111 18 296 11 402 -16z"/>
</g>
</svg>
