<?xml version="1.0" standalone="no"?>
<!DOCTYPE svg PUBLIC "-//W3C//DTD SVG 20010904//EN"
 "http://www.w3.org/TR/2001/REC-SVG-20010904/DTD/svg10.dtd">
<svg version="1.0" xmlns="http://www.w3.org/2000/svg"
 width="2000.000000pt" height="1640.000000pt" viewBox="0 0 2000.000000 1640.000000"
 preserveAspectRatio="xMidYMid meet">
<metadata>
Created by potrace 1.13, written by Peter Selinger 2001-2015
</metadata>
<g transform="translate(0.000000,1640.000000) scale(0.100000,-0.100000)"
fill="#000000" stroke="none">
<path d="M18629 16343 c0 -32 -2 -74 -4 -93 -12 -131 -18 -183 -31 -242 -7
-37 -16 -81 -19 -96 -16 -94 -93 -306 -161 -447 -266 -549 -771 -970 -1359
-1131 -141 -38 -226 -54 -375 -70 -36 -4 -967 -8 -2070 -9 -1103 -1 -2027 -5
-2055 -8 -27 -3 -84 -9 -125 -12 -41 -4 -77 -8 -80 -10 -3 -2 -32 -6 -65 -10
-78 -8 -272 -49 -405 -85 -464 -126 -920 -363 -1300 -675 -123 -101 -249 -223
-400 -385 -47 -51 -212 -262 -265 -339 -113 -164 -258 -426 -333 -601 -90
-213 -185 -517 -216 -694 -3 -16 -10 -52 -15 -80 -10 -50 -14 -77 -26 -166
-11 -82 -14 -124 -21 -235 -6 -112 -7 -138 -5 -187 l1 -28 682 3 683 2 2 70
c2 63 20 239 29 290 2 11 7 34 10 50 70 390 302 820 597 1111 62 60 200 177
267 225 112 81 405 239 443 239 7 0 17 4 23 9 7 7 75 33 94 36 3 0 30 9 60 18
30 10 69 22 85 27 33 10 230 45 315 56 30 4 946 8 2035 9 1760 2 2157 5 2230
20 11 2 45 7 76 10 31 3 65 7 75 9 11 2 39 7 64 11 25 4 54 9 65 11 11 2 33 7
48 9 73 14 342 87 432 118 1098 377 1943 1269 2255 2381 12 42 23 85 25 94 2
9 10 46 19 82 8 36 18 79 21 95 23 125 35 203 40 257 3 35 8 77 10 93 2 17 7
96 11 178 l6 147 -686 0 -686 0 -1 -57z"/>
<path d="M5237 10364 c-1 -1 -90 -5 -197 -8 -198 -7 -221 -9 -345 -21 -38 -4
-81 -9 -95 -10 -37 -4 -130 -16 -151 -20 -9 -2 -39 -7 -66 -11 -26 -3 -57 -8
-68 -10 -11 -2 -33 -7 -50 -9 -16 -3 -70 -14 -120 -25 -49 -10 -101 -21 -115
-24 -14 -2 -50 -11 -80 -19 -30 -9 -91 -25 -135 -37 -203 -54 -489 -158 -723
-261 -115 -51 -373 -178 -382 -189 -3 -3 -30 -18 -60 -34 -76 -40 -305 -184
-417 -262 -384 -268 -779 -637 -1079 -1009 -301 -374 -527 -750 -739 -1230
-136 -307 -287 -823 -341 -1161 -3 -20 -7 -46 -10 -58 -2 -11 -6 -42 -9 -67
-3 -25 -7 -56 -10 -68 -4 -23 -15 -119 -21 -181 -16 -191 -19 -272 -19 -510 0
-245 4 -344 20 -500 3 -25 7 -70 10 -100 22 -219 92 -579 160 -815 55 -193
156 -480 211 -603 13 -29 24 -55 24 -58 0 -12 192 -396 242 -484 298 -522 615
-914 1098 -1354 174 -159 592 -465 765 -560 17 -9 37 -21 45 -26 70 -46 390
-211 525 -270 28 -12 64 -28 80 -35 36 -16 246 -98 260 -101 6 -2 51 -17 100
-34 151 -53 427 -131 545 -154 250 -49 166 -46 1125 -46 906 0 893 0 1080 35
246 46 727 199 980 310 127 56 381 180 460 225 22 13 67 38 100 57 116 66 258
159 465 304 50 35 266 206 319 254 59 51 156 138 161 144 3 3 37 35 75 71 l70
65 1057 0 1058 -1 57 -56 c32 -30 83 -78 113 -105 30 -28 68 -62 84 -77 222
-202 598 -468 903 -640 94 -53 379 -195 438 -218 22 -9 65 -27 95 -41 233
-105 658 -234 992 -302 l127 -25 898 0 c494 0 916 5 938 9 22 5 56 12 75 15
229 35 765 199 1021 314 24 10 82 36 129 57 456 204 955 533 1339 883 154 141
375 370 467 482 16 19 31 37 35 40 27 24 194 244 286 380 32 47 61 87 64 90 8
7 177 288 219 365 39 69 170 332 170 339 0 3 13 33 30 68 55 118 138 340 200
533 38 119 99 342 105 380 1 11 10 50 19 88 8 37 18 82 21 100 3 17 8 39 10
47 2 8 7 35 10 60 3 25 12 86 20 135 8 50 17 119 20 155 3 36 8 72 10 80 26
102 26 849 0 1043 -2 18 -6 55 -9 82 -80 733 -345 1497 -747 2145 -62 101
-221 336 -260 384 -5 6 -50 63 -101 126 -50 63 -96 120 -102 126 -6 6 -36 40
-65 75 -92 108 -399 408 -531 520 -221 187 -557 425 -755 535 -38 22 -77 44
-86 49 -36 22 -357 182 -409 204 -30 13 -73 31 -95 41 -202 88 -632 231 -795
264 -14 3 -76 17 -138 30 -62 14 -125 27 -140 30 -83 14 -222 36 -257 40 -22
3 -56 7 -75 10 -19 3 -66 8 -105 11 -38 4 -83 8 -100 10 -132 14 -1083 17
-5208 19 -2595 0 -4719 0 -4720 0z m434 -2914 c128 -24 233 -104 288 -220 l26
-55 3 -627 3 -628 589 0 c393 0 607 -4 642 -11 120 -25 224 -107 277 -219 l26
-55 0 -495 0 -495 -32 -60 c-42 -81 -104 -141 -183 -179 l-65 -31 -627 -3
-627 -2 -3 -633 -3 -632 -31 -60 c-42 -80 -105 -141 -184 -179 l-65 -31 -490
0 -490 0 -58 28 c-116 57 -199 172 -217 298 -5 35 -10 322 -10 637 l0 572
-610 0 c-671 0 -652 -2 -754 63 -61 39 -131 132 -154 206 -15 50 -17 107 -17
511 0 454 0 455 23 513 44 108 132 196 236 233 47 18 96 19 664 22 l612 3 0
572 c0 351 4 597 11 637 13 83 60 170 120 224 57 51 104 76 179 92 70 16 842
19 921 4z m9259 -17 c444 -106 696 -583 539 -1018 -82 -226 -270 -402 -509
-477 -65 -20 -95 -23 -225 -23 -138 1 -157 3 -230 28 -266 93 -452 295 -516
562 -18 75 -20 110 -16 210 6 140 32 235 98 355 53 94 178 221 274 278 174
102 387 133 585 85z m-1525 -1543 c369 -94 618 -469 565 -849 -13 -99 -54
-217 -101 -298 -55 -94 -199 -231 -294 -280 -141 -73 -208 -88 -380 -88 -138
1 -157 3 -230 28 -207 72 -371 215 -460 401 -56 118 -69 183 -70 341 0 161 17
231 88 370 52 100 180 233 282 293 81 47 201 90 289 102 84 12 221 3 311 -20z
m3080 0 c369 -94 618 -469 565 -849 -13 -99 -54 -217 -101 -298 -55 -94 -199
-231 -294 -280 -141 -73 -208 -88 -380 -88 -138 1 -157 3 -230 28 -266 93
-452 295 -516 562 -28 117 -23 292 11 400 74 235 251 423 475 504 48 17 117
35 153 41 90 12 225 4 317 -20z m-1540 -1540 c153 -39 316 -147 409 -271 330
-439 134 -1054 -389 -1219 -108 -34 -283 -39 -400 -11 -289 69 -507 287 -576
576 -18 75 -20 110 -16 210 6 138 26 216 90 340 52 100 179 233 282 293 179
105 396 134 600 82z"/>
</g>
</svg>
