<?xml version="1.0" standalone="no"?>
<!DOCTYPE svg PUBLIC "-//W3C//DTD SVG 20010904//EN"
 "http://www.w3.org/TR/2001/REC-SVG-20010904/DTD/svg10.dtd">
<svg version="1.0" xmlns="http://www.w3.org/2000/svg"
 width="512.000000pt" height="512.000000pt" viewBox="0 0 512.000000 512.000000"
 preserveAspectRatio="xMidYMid meet">
<metadata>
Created by potrace 1.13, written by Peter Selinger 2001-2015
</metadata>
<g transform="translate(0.000000,512.000000) scale(0.100000,-0.100000)"
fill="#000000" stroke="none">
<path d="M2505 4983 c-54 -6 -118 -24 -170 -47 -57 -27 -132 -82 -395 -291
-102 -81 -200 -159 -218 -173 -19 -15 -46 -37 -60 -49 -15 -12 -135 -107 -267
-212 -132 -104 -244 -194 -250 -198 -23 -19 -369 -294 -614 -488 -380 -302
-382 -303 -413 -363 -24 -48 -26 -61 -27 -197 -2 -128 1 -150 20 -195 57 -132
207 -187 336 -124 89 43 142 134 143 243 l1 46 362 287 c421 334 374 297 552
438 77 61 147 116 155 123 8 6 58 46 110 87 52 41 97 77 100 80 3 3 91 73 195
155 105 82 224 177 265 211 66 53 102 77 160 104 22 10 131 5 161 -7 14 -6 57
-35 95 -64 69 -53 652 -516 689 -547 11 -9 49 -40 85 -67 36 -28 93 -72 126
-100 34 -27 77 -62 95 -76 49 -37 582 -461 596 -474 6 -5 52 -41 102 -80 88
-68 90 -71 91 -112 0 -52 -1 -48 15 -100 18 -61 67 -117 127 -147 125 -63 275
-9 334 118 21 46 24 65 24 190 0 197 -15 231 -143 333 -40 32 -79 63 -87 70
-8 7 -44 35 -80 63 -36 29 -81 64 -100 80 -19 15 -150 119 -290 230 -140 112
-289 231 -331 264 -42 34 -137 109 -210 167 -74 58 -278 220 -454 360 -447
355 -483 382 -545 412 -82 39 -198 59 -285 50z"/>
<path d="M2488 4236 c-52 -19 -59 -24 -259 -187 -96 -79 -195 -160 -219 -179
-24 -19 -51 -42 -60 -50 -8 -8 -36 -31 -60 -50 -25 -19 -54 -43 -65 -52 -19
-16 -485 -397 -515 -421 -218 -176 -514 -424 -534 -447 -55 -66 -53 -27 -52
-1320 1 -657 6 -1208 11 -1225 23 -81 92 -144 175 -162 25 -5 264 -9 535 -9
l490 1 0 700 c1 634 3 703 18 730 24 43 38 59 72 81 28 18 55 19 521 22 479 3
494 2 536 -18 47 -22 86 -71 97 -122 4 -18 6 -334 6 -703 -1 -369 0 -675 2
-681 3 -7 159 -10 516 -9 501 1 513 1 552 22 58 30 90 62 117 113 l23 45 0
1220 0 1220 -22 45 c-20 44 -67 93 -147 155 -21 17 -44 35 -50 40 -6 6 -272
224 -591 485 -319 260 -616 504 -660 540 -199 165 -236 192 -284 211 -59 22
-101 23 -153 5z"/>
</g>
</svg>
