<?xml version="1.0" standalone="no"?>
<!DOCTYPE svg PUBLIC "-//W3C//DTD SVG 20010904//EN"
 "http://www.w3.org/TR/2001/REC-SVG-20010904/DTD/svg10.dtd">
<svg version="1.0" xmlns="http://www.w3.org/2000/svg"
 width="512.000000pt" height="512.000000pt" viewBox="0 0 512.000000 512.000000"
 preserveAspectRatio="xMidYMid meet">
<metadata>
Created by potrace 1.13, written by Peter Selinger 2001-2015
</metadata>
<g transform="translate(0.000000,512.000000) scale(0.100000,-0.100000)"
fill="#000000" stroke="none">
<path d="M3283 4890 c-109 -23 -181 -76 -304 -223 l-82 -99 24 -23 c13 -12
239 -203 501 -423 l477 -401 97 117 c129 154 149 198 149 322 0 172 -29 213
-313 452 -119 101 -234 196 -255 211 -76 57 -204 86 -294 67z"/>
<path d="M2609 4228 c-84 -101 -159 -190 -166 -199 -13 -15 37 -60 487 -439
276 -232 503 -420 504 -418 2 1 75 89 164 195 89 105 163 196 164 201 3 9
-979 842 -993 842 -4 0 -76 -82 -160 -182z"/>
<path d="M2203 3748 c-83 -97 -1689 -2006 -1781 -2116 -34 -41 -57 -80 -66
-115 -12 -41 -56 -560 -56 -653 0 -16 51 -65 185 -178 l184 -156 303 76 c299
74 362 95 404 131 27 23 1894 2241 1900 2257 4 10 -958 832 -986 844 -4 2 -43
-39 -87 -90z"/>
<path d="M2142 670 c-645 -97 -1183 -182 -1197 -188 -56 -25 -76 -119 -38
-171 45 -59 -1 -64 1083 100 546 82 1001 149 1012 149 26 0 68 -44 68 -72 0
-13 -16 -48 -35 -78 -72 -112 -28 -227 84 -223 20 0 412 49 871 108 553 70
843 111 857 121 81 52 73 164 -14 200 -33 14 -77 10 -662 -66 -344 -45 -643
-82 -665 -83 -31 -1 -43 4 -62 26 -32 37 -30 53 12 123 20 32 40 71 44 86 12
40 -6 93 -41 122 -25 22 -40 26 -87 25 -31 -1 -585 -81 -1230 -179z"/>
<path d="M205 563 c-3 -54 -8 -114 -11 -134 -4 -26 0 -42 14 -60 l20 -24 142
35 141 35 -145 123 c-80 67 -147 122 -150 122 -2 0 -7 -44 -11 -97z"/>
</g>
</svg>
